<svg xml:space="preserve" style="enable-background:new 0 0 256.5 253.117;" viewBox="0 0 256.5 253.117" height="253.117px" width="256.5px" y="0px" x="0px" xmlns:xlink="http://www.w3.org/1999/xlink" xmlns="http://www.w3.org/2000/svg" id="Layer_1" version="1.1">
<g id="Layer_1_5_">
	<path d="M252.479,119.326c0-40.701-33.074-73.693-73.871-73.693c-0.635,0-1.262,0.029-1.893,0.046
		c-12.881-21.591-36.498-36.067-63.514-36.067c-40.798,0-73.871,32.995-73.871,73.696c0,0.529,0.029,1.049,0.04,1.576
		C17.056,97.563,2,121.49,2,148.941c0,40.699,33.073,73.688,73.872,73.688c2.32,0,4.612-0.119,6.878-0.326
		c13.551,16.375,34.051,26.813,56.998,26.813c37.711,0,68.793-28.192,73.289-64.596
		C236.488,172.174,252.479,147.618,252.479,119.326z" style="fill:#D6F0FF;"></path>
	<g style="opacity:0.44;" id="Layer_2_3_">
		<path d="M45.145,44.78c-1.181,0-2.367-0.416-3.319-1.263c-2.064-1.834-2.25-4.995-0.416-7.059
			C56.376,19.617,76.008,8.438,98.181,4.129c18.1-3.518,36.786-2.086,54.037,4.141c2.597,0.938,3.942,3.804,3.005,6.401
			c-0.938,2.598-3.8,3.944-6.401,3.005c-15.552-5.615-32.403-6.904-48.732-3.731c-20.001,3.887-37.708,13.969-51.205,29.156
			C47.896,44.213,46.524,44.78,45.145,44.78z" style="fill:#F59FB3;"></path>
		<path d="M33.352,85.695c-0.473,0-0.954-0.068-1.43-0.21c-2.646-0.789-4.152-3.574-3.363-6.22
			c10.143-34.026,38.08-59.368,72.907-66.136c40.08-7.792,80.55,10.82,100.694,46.312c1.363,2.401,0.521,5.453-1.881,6.816
			c-2.402,1.364-5.452,0.521-6.816-1.881c-18.02-31.751-54.227-48.402-90.089-41.432c-31.16,6.056-56.155,28.73-65.231,59.176
			C37.495,84.292,35.506,85.695,33.352,85.695z" style="fill:#FFFF75;"></path>
		<path d="M38.174,100.719c-0.213,0-0.429-0.014-0.646-0.042c-2.739-0.354-4.672-2.86-4.319-5.599
			c4.825-37.381,32.943-67.332,69.969-74.528c27.591-5.363,56.27,2.981,76.721,22.319c2.006,1.897,2.095,5.062,0.197,7.068
			c-1.896,2.006-5.061,2.095-7.068,0.197c-18.112-17.127-43.51-24.518-67.941-19.769C72.298,36.74,47.399,63.26,43.127,96.359
			C42.801,98.88,40.651,100.719,38.174,100.719z" style="fill:#AFEB75;"></path>
		<path d="M190.284,86.585c-2.067,0-4.001-1.292-4.721-3.354c-11.312-32.418-45.303-51.913-79.067-45.354
			C88.818,41.313,73.35,51.294,62.942,65.981c-1.597,2.252-4.717,2.786-6.971,1.188c-2.253-1.597-2.785-4.718-1.188-6.971
			c11.902-16.794,29.59-28.208,49.806-32.138c18.919-3.675,38.507-0.382,55.157,9.276c16.489,9.564,29.011,24.693,35.259,42.6
			c0.91,2.607-0.466,5.458-3.073,6.368C191.387,86.495,190.83,86.585,190.284,86.585z" style="fill:#75D5EB;"></path>
	</g>
	<path d="M2.569,139.834C2.2,142.818,2,145.857,2,148.941c0,40.699,33.073,73.688,73.872,73.688
		c2.32,0,4.612-0.119,6.878-0.326c13.551,16.375,34.051,26.813,56.998,26.813c37.711,0,68.793-28.192,73.289-64.596
		c17.551-9.242,30.922-25.322,36.539-44.688L2.569,139.834L2.569,139.834z" style="fill:#FAF0E6;"></path>
	<g id="Layer_2_1_">
		<g>
			<polygon points="126.959,120.721 179.475,45.56 242.312,120.721" style="fill:#F0F0FF;"></polygon>
			<path d="M242.332,122.221c-0.005,0-0.013,0.001-0.02,0H126.959c-0.559,0-1.072-0.311-1.33-0.807
				c-0.258-0.496-0.22-1.094,0.101-1.552l52.516-75.161c0.268-0.383,0.698-0.62,1.165-0.64c0.467-0.015,0.916,0.179,1.215,0.537
				l62.709,75.006c0.306,0.275,0.498,0.673,0.498,1.117C243.832,121.549,243.161,122.221,242.332,122.221z M129.837,119.221h109.267
				l-59.522-71.194L129.837,119.221z" style="fill:#CCCCDE;"></path>
		</g>
		<g>
			<polygon points="32.083,120.721 79.549,52.783 136.35,120.721" style="fill:#F0F0FF;"></polygon>
			<path d="M136.369,122.221c-0.005,0-0.013,0.001-0.02,0H32.083c-0.559,0-1.072-0.311-1.33-0.807
				s-0.22-1.094,0.101-1.552l47.466-67.938c0.268-0.383,0.698-0.62,1.165-0.64c0.483-0.012,0.917,0.178,1.216,0.537l56.671,67.783
				c0.306,0.275,0.498,0.673,0.498,1.117C137.869,121.549,137.198,122.221,136.369,122.221z M34.961,119.221h98.18L79.656,55.25
				L34.961,119.221z" style="fill:#CCCCDE;"></path>
		</g>
		<g>
			<polygon points="61.751,120.721 127.744,26.27 206.71,120.721" style="fill:#F0F0FF;"></polygon>
			<path d="M206.729,122.221c-0.005,0-0.012,0.001-0.02,0H61.751c-0.559,0-1.072-0.311-1.33-0.807
				s-0.22-1.094,0.101-1.552l65.993-94.451c0.268-0.383,0.698-0.62,1.165-0.64c0.484-0.016,0.917,0.179,1.215,0.537l78.837,94.296
				c0.306,0.275,0.498,0.673,0.498,1.117C208.229,121.549,207.559,122.221,206.729,122.221z M64.629,119.221h138.872l-75.65-90.484
				L64.629,119.221z" style="fill:#CCCCDE;"></path>
		</g>
		<polygon points="127.744,26.27 168.665,103.232 127.489,70.924 
			147.241,106.384 86.316,112.388 117.115,41.481 61.751,120.721 206.159,120.043" style="opacity:0.1;fill:#6E6E96;enable-background:new    ;"></polygon>
		<polygon points="79.549,52.783 50.16,112.688 92.821,68.657 
			95.711,72.115 61.751,120.721 32.083,120.721" style="opacity:0.1;fill:#6E6E96;enable-background:new    ;"></polygon>
		<polygon points="164.493,70.216 212.854,114.264 226.245,114.264 
			179.475,45.56 242.312,120.721 206.159,120.568" style="opacity:0.1;fill:#6E6E96;enable-background:new    ;"></polygon>
	</g>
	<path d="M2.489,140.5h246.883c2.015-6.707,3.106-13.812,3.106-21.174c0-8.174-1.354-16.028-3.816-23.375
		H24.571C12.569,107.508,4.483,123.077,2.489,140.5z" style="fill:#D6F0FF;"></path>
	<rect height="3" width="224.091" style="fill:#CCCCDE;" y="94.451" x="24.571"></rect>
	<rect height="3" width="246.883" style="fill:#CCCCDE;" y="139" x="2.489"></rect>
	<rect height="3" width="25.424" style="fill:#FFFFFF;" y="106.333" x="14.576"></rect>
	<rect height="3" width="46" style="fill:#FFFFFF;" y="121" x="31.333"></rect>
	<rect height="3" width="39.334" style="opacity:0.61;fill:#FFFFFF;enable-background:new    ;" y="104.333" x="113.333"></rect>
	<rect height="3" width="12.667" style="fill:#FFFFFF;" y="111" x="226"></rect>
	<rect height="3" width="34.667" style="fill:#FFFFFF;" y="129.667" x="180.667"></rect>
	<rect height="3" width="10" style="opacity:0.48;fill:#FFFFFF;enable-background:new    ;" y="107" x="193.334"></rect>
	<rect height="3" width="15.334" style="opacity:0.48;fill:#FFFFFF;enable-background:new    ;" y="110.333" x="77.333"></rect>
	<rect height="3" width="5.333" style="opacity:0.48;fill:#FFFFFF;enable-background:new    ;" y="126.333" x="6.667"></rect>
	<path d="M250.598,102.833c-0.535-2.339-1.183-4.634-1.936-6.882
		H24.571c-2.242,2.159-4.345,4.458-6.299,6.882H250.598z" style="opacity:0.1;fill:#6E6E96;enable-background:new    ;"></path>
	<rect height="5.334" width="256" style="opacity:0.38;fill:#FFFFFF;enable-background:new    ;" y="133.5" x="-1"></rect>
	<g style="display:none;" id="Layer_3_2_">
		<g style="display:inline;">
			<g>
				<path d="M84.16,142.542c0-11.563-10.059-20.936-22.467-20.936c-0.194,0-0.385,0.009-0.576,0.014
					c-3.917-6.134-11.102-10.245-19.318-10.245c-12.409,0-22.469,9.372-22.469,20.936c0,0.149,0.009,0.297,0.012,0.446
					c-6.785,3.603-11.365,10.399-11.365,18.198c0,11.562,10.059,20.934,22.468,20.934c0.705,0,1.403-0.033,2.092-0.094
					c4.122,4.65,10.358,7.617,17.335,7.617c11.471,0,20.925-8.01,22.293-18.35C79.297,157.555,84.16,150.579,84.16,142.542z" style="fill:#D7F7E4;"></path>
				<path d="M49.872,180.912c-6.895,0-13.393-2.749-17.95-7.568c-0.499,0.03-0.993,0.045-1.477,0.045
					c-13.216,0-23.968-10.063-23.968-22.434c0-7.768,4.328-14.997,11.357-19.076c0.247-12.173,10.902-22.004,23.964-22.004
					c8.091,0,15.716,3.9,20.112,10.232c13.116,0.11,23.749,10.131,23.749,22.435c0,8.109-4.626,15.515-12.127,19.506
					C71.687,172.857,61.662,180.912,49.872,180.912z M33.159,170.234l0.501,0.565c4.006,4.52,9.916,7.112,16.212,7.112
					c10.575,0,19.52-7.328,20.806-17.046l0.105-0.796l0.72-0.354c6.882-3.385,11.157-9.966,11.157-17.175
					c0-10.717-9.406-19.436-20.967-19.436c-0.115,0-0.229,0.004-0.344,0.008l-1.041,0.027l-0.456-0.714
					c-3.763-5.892-10.68-9.552-18.054-9.552c-11.562,0-20.969,8.719-20.969,19.436l0.029,1.339l-0.814,0.433
					c-6.519,3.461-10.568,9.927-10.568,16.873c0,10.716,9.406,19.434,20.968,19.434c0.637,0,1.296-0.029,1.961-0.088L33.159,170.234
					z" style="fill:#CCCCDE;"></path>
			</g>
			<path d="M61.314,120.853c-0.193,0-0.384,0.009-0.575,0.014
				c-3.141-4.918-8.383-8.534-14.573-9.775c4.898,1.229,9.023,4.208,11.558,8.175c0.165-0.004,2.416,3.886,2.583,3.886
				c10.648,0,15.601,5.738,15.601,15.66c0,6.896-2.583,11.291-8.704,14.302c-1.173,8.875-9.287,15.748-19.129,15.748
				c-5.99,0-11.34-2.544-14.877-6.533c-0.591,0.05-1.189,0.078-1.794,0.078c-10.649,0-19.013-5.048-19.013-14.968
				c0-6.683,2.99-9.973,8.432-13.938c-0.145-0.855-0.75-8.421,1.267-10.437c4.792-4.793,6.963-8.909,11.25-11.038
				c-8.414,3.025-14.385,10.627-14.385,19.536c0,0.147,0.009,0.299,0.012,0.446c-6.787,3.604-11.366,10.396-11.366,18.196
				c0,11.562,10.059,20.938,22.468,20.938c0.707,0,1.403-0.035,2.093-0.098c4.121,4.648,10.356,7.617,17.336,7.617
				c11.469,0,20.924-8.012,22.291-18.354c7.133-3.506,11.997-10.479,11.997-18.521C83.783,130.227,73.724,120.853,61.314,120.853z" style="opacity:0.1;fill:#6E6E96;enable-background:new    ;"></path>
			<g>
				<path d="M29.336,153.865c0,0,11.635,2.277,11.635,13.662c0,0,3.132,19.342-8.976,33.026h27.96
					c-0.277-0.387-24.422-32.644,2.449-51.815C46.016,158.107,29.336,153.865,29.336,153.865z" style="fill:#EDE3DA;"></path>
				<path d="M59.955,202.054h-31.29l2.207-2.494c11.477-12.972,8.648-31.607,8.619-31.794l-0.019-0.238
					c0-9.079-8.398-11.683-10.144-12.124c-0.238-0.053-0.362-0.084-0.362-0.084l0.658-2.926c0,0,0.139,0.026,0.39,0.089
					c0.935,0.203,4.231,0.841,8.802,0.841c5.724,0,14.333-1.021,22.844-5.887l1.616,2.522c-6.629,4.73-10.566,10.708-11.701,17.767
					c-2.416,15.023,8.336,30.229,9.57,31.913l1.748,2.386L59.955,202.054z M35.13,199.054h21.996
					c-3.446-5.395-10.641-18.573-8.514-31.805c0.804-4.999,2.848-9.499,6.1-13.452c-6.069,2.011-11.71,2.526-15.896,2.526
					c-0.463,0-0.915-0.006-1.352-0.018c2.655,2.276,4.974,5.786,5.007,11.104C42.731,169.146,44.9,185.741,35.13,199.054z" style="fill:#CCCCDE;"></path>
			</g>
			<g>
				<path d="M36.703,131.025" style="fill:#D57E58;"></path>
			</g>
			<path d="M55.43,153.833c0,0-17.654,22.793-4.085,46.722h8.611
				C59.955,200.555,42.04,175.518,55.43,153.833z" style="opacity:0.11;fill:#6E6E96;enable-background:new    ;"></path>
		</g>
		<g style="display:inline;">
			<g>
				<path d="M254,141.26c0-10.828-9.42-19.604-21.04-19.604c-0.183,0-0.36,0.008-0.539,0.013
					c-3.669-5.744-10.396-9.595-18.091-9.595c-11.62,0-21.041,8.777-21.041,19.604c0,0.141,0.009,0.279,0.012,0.418
					c-6.354,3.375-10.644,9.739-10.644,17.043c0,10.825,9.421,19.604,21.04,19.604c0.66,0,1.312-0.032,1.96-0.089
					c3.858,4.354,9.698,7.134,16.233,7.134c10.738,0,19.596-7.499,20.875-17.185C249.445,155.316,254,148.786,254,141.26z" style="fill:#D7F7E4;"></path>
				<path d="M221.891,177.288c-6.467,0-12.563-2.573-16.848-7.085c-0.458,0.027-0.902,0.04-1.346,0.04
					c-12.429,0-22.54-9.468-22.54-21.104c0-7.289,4.053-14.077,10.637-17.92c0.262-11.426,10.271-20.646,22.536-20.646
					c7.59,0,14.745,3.652,18.885,9.583c12.312,0.128,22.285,9.545,22.285,21.103c0,7.612-4.335,14.567-11.367,18.328
					C242.377,169.733,232.962,177.288,221.891,177.288z M206.279,167.094l0.501,0.565c3.733,4.213,9.241,6.629,15.11,6.629
					c9.857,0,18.192-6.827,19.388-15.881l0.105-0.795l0.72-0.354c6.413-3.156,10.396-9.286,10.396-15.998
					c0-9.982-8.766-18.104-19.54-18.104c-0.117,0-0.231,0.004-0.346,0.007l-1.001,0.028l-0.456-0.715
					c-3.508-5.491-9.955-8.902-16.827-8.902c-10.775,0-19.541,8.122-19.541,18.104l0.031,1.31l-0.815,0.433
					c-6.074,3.227-9.848,9.25-9.848,15.719c0,9.982,8.766,18.104,19.54,18.104c0.591,0,1.189-0.027,1.829-0.083L206.279,167.094z" style="fill:#CCCCDE;"></path>
			</g>
			<path d="M232.605,120.949c-0.184,0-0.358,0.008-0.539,0.012
				c-2.94-4.606-7.853-7.992-13.646-9.154c4.586,1.15,8.449,3.94,10.822,7.655c0.154-0.004,2.263,3.639,2.419,3.639
				c9.971,0,14.608,5.374,14.608,14.665c0,6.459-2.42,10.573-8.148,13.396c-1.1,8.311-8.698,14.742-17.914,14.742
				c-5.607,0-10.619-2.381-13.934-6.117c-0.557,0.047-1.112,0.072-1.682,0.072c-9.975,0-17.806-4.728-17.806-14.017
				c0-6.257,2.8-9.339,7.896-13.055c-0.138-0.806-0.701-7.885,1.188-9.772c4.485-4.488,6.521-8.343,10.535-10.337
				c-7.88,2.833-13.472,9.952-13.472,18.292c0,0.139,0.006,0.275,0.012,0.418c-6.354,3.373-10.646,9.736-10.646,17.041
				c0,10.824,9.421,19.604,21.041,19.604c0.661,0,1.313-0.032,1.959-0.088c3.859,4.354,9.699,7.133,16.234,7.133
				c10.739,0,19.594-7.5,20.875-17.187c6.68-3.285,11.231-9.813,11.231-17.342C253.646,129.727,244.227,120.949,232.605,120.949z" style="opacity:0.1;fill:#6E6E96;enable-background:new    ;"></path>
			<g>
				<path d="M202.66,151.861c0,0,10.896,2.133,10.896,12.797c0,0,2.934,18.109-8.406,30.927h26.184
					c-0.26-0.358-22.87-30.565,2.294-48.521C218.279,155.836,202.66,151.861,202.66,151.861z" style="fill:#EDE3DA;"></path>
				<path d="M231.334,197.085H201.82l2.207-2.494c10.744-12.145,8.077-29.519,8.049-29.692l-0.02-0.24
					c0-8.432-7.802-10.853-9.426-11.264c-0.225-0.05-0.341-0.08-0.341-0.08l0.658-2.925c0,0,0.132,0.024,0.369,0.084
					c0.876,0.19,3.955,0.786,8.226,0.786c5.348,0,13.39-0.954,21.341-5.498l1.615,2.523c-6.195,4.421-9.87,10.006-10.924,16.602
					c-2.247,14.071,7.8,28.223,8.952,29.79l1.758,2.389L231.334,197.085z M208.273,194.085h20.232
					c-3.271-5.141-9.861-17.346-7.893-29.672c0.735-4.605,2.589-8.76,5.534-12.422c-5.576,1.803-10.748,2.269-14.604,2.269
					c-0.344,0-0.681-0.004-1.009-0.011c2.417,2.149,4.489,5.412,4.522,10.291C215.305,166.203,217.305,181.631,208.273,194.085z" style="fill:#CCCCDE;"></path>
			</g>
			<g>
				<path d="M209.561,130.477" style="fill:#D57E58;"></path>
			</g>
			<path d="M227.096,151.833c0,0-16.531,21.345-3.824,43.752h8.063
				C231.333,195.585,214.557,172.139,227.096,151.833z" style="opacity:0.11;fill:#6E6E96;enable-background:new    ;"></path>
		</g>
		<g style="display:inline;">
			<g>
				<path d="M217.298,143.02c0-16.622-14.461-30.095-32.299-30.095c-0.278,0-0.554,0.012-0.828,0.019
					c-5.632-8.817-15.959-14.729-27.771-14.729c-17.838,0-32.301,13.475-32.301,30.096c0,0.215,0.014,0.429,0.018,0.646
					c-9.755,5.181-16.339,14.945-16.339,26.157c0,16.62,14.462,30.097,32.3,30.097c1.014,0,2.018-0.05,3.008-0.138
					c5.926,6.688,14.889,10.95,24.921,10.95c16.489,0,30.081-11.514,32.048-26.379C210.307,164.602,217.298,154.572,217.298,143.02z" style="fill:#D7F7E4;"></path>
				<path d="M168.007,197.523c-9.84,0-19.103-3.963-25.537-10.897c-0.815,0.057-1.617,0.085-2.392,0.085
					c-18.638,0-33.8-14.174-33.8-31.597c0-11.044,6.23-21.322,16.322-27.036c0.134-17.315,15.246-31.363,33.8-31.363
					c11.535,0,22.398,5.615,28.566,14.71c0.011,0,0.021,0,0.032,0c18.637,0,33.799,14.173,33.799,31.595
					c0,11.516-6.635,22.026-17.371,27.612C198.969,186.018,184.751,197.523,168.007,197.523z M143.707,183.513l0.502,0.565
					c5.881,6.639,14.555,10.445,23.798,10.445c15.531,0,28.669-10.78,30.561-25.075l0.105-0.796l0.72-0.354
					c10.119-4.978,16.405-14.664,16.405-25.279c0-15.768-13.816-28.595-30.799-28.595c-0.179,0-0.355,0.006-0.532,0.011
					l-1.104,0.028l-0.455-0.713c-5.531-8.658-15.688-14.037-26.507-14.037c-16.983,0-30.801,12.828-30.801,28.596
					c0,0.108,0.004,0.217,0.009,0.325l0.028,1.213l-0.815,0.434c-9.587,5.091-15.543,14.606-15.543,24.832
					c0,15.769,13.817,28.597,30.8,28.597c0.922,0,1.89-0.044,2.875-0.132L143.707,183.513z" style="fill:#CCCCDE;"></path>
			</g>
			<path d="M184.456,111.841c-0.276,0-0.552,0.012-0.827,0.019
				c-4.516-7.071-12.051-12.269-20.949-14.052c7.041,1.766,12.971,6.049,16.614,11.751c0.237-0.006,3.474,5.586,3.713,5.586
				c15.308,0,22.429,8.248,22.429,22.511c0,9.914-3.715,16.231-12.513,20.562c-1.687,12.754-13.353,22.635-27.5,22.635
				c-8.61,0-16.302-3.655-21.387-9.396c-0.851,0.071-1.71,0.114-2.58,0.114c-15.31,0-27.332-7.254-27.332-21.516
				c0-9.604,4.298-14.337,12.12-20.039c-0.209-1.234-1.077-12.104,1.82-15.002c6.89-6.89,10.011-12.808,16.174-15.868
				c-12.096,4.349-20.679,15.277-20.679,28.08c0,0.215,0.011,0.429,0.017,0.646c-9.756,5.178-16.34,14.947-16.34,26.156
				c0,16.621,14.461,30.097,32.3,30.097c1.017,0,2.017-0.049,3.008-0.135c5.925,6.688,14.89,10.948,24.922,10.948
				c16.487,0,30.078-11.515,32.046-26.379c10.254-5.043,17.244-15.069,17.244-26.623
				C216.756,125.314,202.295,111.841,184.456,111.841z" style="opacity:0.1;fill:#6E6E96;enable-background:new    ;"></path>
			<g>
				<path d="M138.484,159.296c0,0,16.727,3.272,16.727,19.644c0,0,4.504,27.806-12.904,47.479h40.195
					c-0.398-0.555-35.107-46.922,3.521-74.483C162.464,165.396,138.484,159.296,138.484,159.296z" style="fill:#EDE3DA;"></path>
				<path d="M182.502,227.919h-43.525l2.207-2.494c16.743-18.923,12.591-45.975,12.547-46.245l-0.02-0.24
					c0-13.557-12.515-17.422-15.086-18.071c-0.336-0.074-0.511-0.118-0.511-0.118l0.658-2.926c0,0,0.192,0.037,0.538,0.123
					c1.35,0.295,6.158,1.228,12.813,1.228c8.306,0,20.799-1.481,33.155-8.542l1.615,2.523c-9.683,6.909-15.433,15.65-17.091,25.981
					c-3.511,21.875,12.089,43.914,13.88,46.355l1.75,2.387L182.502,227.919z M145.496,224.919h34.145
					c-4.574-6.925-15.961-26.556-12.799-46.256c1.263-7.87,4.703-14.87,10.258-20.905c-9.522,3.547-18.479,4.417-24.976,4.417
					c-1.404,0-2.727-0.039-3.958-0.104c4.314,3.1,8.506,8.287,8.545,16.75C157.048,181.028,160.4,205.69,145.496,224.919z" style="fill:#CCCCDE;"></path>
			</g>
			<g>
				<path d="M149.077,126.465" style="fill:#D57E58;"></path>
			</g>
			<path d="M175.997,159.251c0,0-25.378,32.767-5.873,67.164h12.378
				C182.502,226.415,156.748,190.423,175.997,159.251z" style="opacity:0.11;fill:#6E6E96;enable-background:new    ;"></path>
		</g>
		<g style="display:inline;">
			<g>
				<path d="M145.461,144.131c0-13.645-11.873-24.707-26.517-24.707c-0.229,0-0.454,0.01-0.68,0.016
					c-4.624-7.239-13.102-12.092-22.8-12.092c-14.644,0-26.518,11.063-26.518,24.707c0,0.178,0.012,0.354,0.015,0.529
					c-8.01,4.251-13.414,12.271-13.414,21.477c0,13.646,11.872,24.707,26.518,24.707c0.832,0,1.655-0.041,2.469-0.106
					c4.864,5.485,12.224,8.985,20.46,8.985c13.537,0,24.695-9.45,26.309-21.653C139.721,161.85,145.461,153.617,145.461,144.131z" style="fill:#D7F7E4;"></path>
				<path d="M104.994,189.146c-8.109,0-15.748-3.248-21.079-8.938c-0.648,0.039-1.259,0.059-1.851,0.059
					c-15.449,0-28.018-11.757-28.018-26.207c0-9.119,5.111-17.604,13.401-22.354c0.2-14.291,12.691-25.858,28.016-25.858
					c9.509,0,18.468,4.606,23.595,12.076c15.396,0.059,27.902,11.793,27.902,26.207c0,9.511-5.454,18.196-14.288,22.848
					C130.576,179.672,118.825,189.146,104.994,189.146z M85.16,177.106l0.497,0.56c4.778,5.39,11.827,8.48,19.337,8.48
					c12.617,0,23.288-8.749,24.821-20.35l0.105-0.795l0.72-0.354c8.216-4.045,13.32-11.906,13.32-20.517
					c0-12.797-11.223-23.207-25.017-23.207c-0.145,0-0.287,0.005-0.429,0.009l-1.059,0.028L117,120.248
					c-4.492-7.031-12.744-11.399-21.536-11.399c-13.795,0-25.018,10.411-25.018,23.207l0.03,1.423l-0.812,0.432
					c-7.783,4.13-12.617,11.852-12.617,20.151c0,12.797,11.223,23.207,25.018,23.207c0.73,0,1.498-0.033,2.349-0.102L85.16,177.106z" style="fill:#CCCCDE;"></path>
			</g>
			<path d="M118.498,118.535c-0.228,0-0.452,0.009-0.679,0.015
				c-3.707-5.805-9.894-10.072-17.199-11.537c5.78,1.45,10.648,4.966,13.641,9.647c0.194-0.005,2.851,4.586,3.048,4.586
				c12.567,0,18.414,6.771,18.414,18.48c0,8.139-3.05,13.325-10.271,16.881c-1.384,10.472-10.961,18.584-22.576,18.584
				c-7.069,0-13.384-3.004-17.559-7.715c-0.698,0.061-1.404,0.096-2.118,0.096c-12.568,0-22.438-5.957-22.438-17.664
				c0-7.885,3.528-11.771,9.949-16.452c-0.171-1.015-0.884-9.938,1.496-12.316c5.655-5.657,8.218-10.515,13.277-13.028
				c-9.93,3.571-16.978,12.542-16.978,23.053c0,0.177,0.01,0.353,0.015,0.528c-8.011,4.25-13.415,12.271-13.415,21.477
				c0,13.645,11.873,24.706,26.518,24.706c0.834,0,1.655-0.04,2.469-0.108c4.864,5.488,12.224,8.988,20.461,8.988
				c13.536,0,24.693-9.451,26.311-21.656c8.418-4.141,14.158-12.371,14.158-21.854C145.016,129.598,133.143,118.535,118.498,118.535
				z" style="opacity:0.1;fill:#6E6E96;enable-background:new    ;"></path>
			<g>
				<path d="M80.757,157.494c0,0,13.731,2.688,13.731,16.128c0,0,3.697,22.823-10.595,38.978h33
					c-0.328-0.455-28.824-38.521,2.89-61.151C100.443,162.502,80.757,157.494,80.757,157.494z" style="fill:#EDE3DA;"></path>
				<path d="M116.893,214.1h-36.33l2.207-2.494c13.636-15.412,10.273-37.523,10.237-37.744l-0.019-0.239
					c0-10.926-10.094-14.049-12.179-14.576c-0.278-0.062-0.422-0.098-0.422-0.098l0.658-2.926c0,0,0.161,0.03,0.451,0.103
					c1.105,0.241,5.025,1.001,10.455,1.001c6.786,0,16.995-1.211,27.088-6.98l1.615,2.523c-7.892,5.632-12.577,12.753-13.924,21.167
					c-2.861,17.866,9.887,35.854,11.351,37.847l1.753,2.388L116.893,214.1z M87.055,211.1h26.991
					c-3.932-6.047-12.823-21.844-10.278-37.738c0.989-6.177,3.596-11.703,7.777-16.517c-7.478,2.623-14.465,3.281-19.595,3.281
					c-0.833,0-1.63-0.017-2.39-0.046c3.334,2.627,6.39,6.832,6.426,13.424C96.28,175.44,98.933,195.348,87.055,211.1z" style="fill:#CCCCDE;"></path>
			</g>
			<g>
				<path d="M89.453,130.541" style="fill:#D57E58;"></path>
			</g>
			<path d="M111.553,157.458c0,0-20.835,26.899-4.821,55.142h10.162
				C116.894,212.6,95.75,183.049,111.553,157.458z" style="opacity:0.11;fill:#6E6E96;enable-background:new    ;"></path>
		</g>
		<g style="display:inline;">
			<g>
				<path d="M252.684,168.268c0-12.345-10.74-22.35-23.988-22.35c-0.202,0-0.406,0.008-0.61,0.014
					c-4.187-6.549-11.854-10.938-20.625-10.938c-13.248,0-23.985,10.007-23.985,22.35c0,0.161,0.012,0.318,0.014,0.479
					c-7.244,3.849-12.135,11.104-12.135,19.431c0,12.348,10.736,22.354,23.985,22.354c0.753,0,1.497-0.039,2.229-0.104
					c4.4,4.969,11.062,8.135,18.512,8.135c12.245,0,22.339-8.553,23.799-19.593C247.49,184.295,252.684,176.85,252.684,168.268z" style="fill:#D7F7E4;"></path>
				<path d="M216.08,209.139c-7.354,0-14.28-2.938-19.127-8.084c-0.557,0.035-1.09,0.053-1.614,0.053
					c-14.053,0-25.485-10.7-25.485-23.854c0-8.272,4.622-15.974,12.125-20.309c0.228-12.967,11.571-23.451,25.481-23.451
					c8.62,0,16.746,4.166,21.42,10.925c13.97,0.093,25.304,10.756,25.304,23.849c0,8.632-4.936,16.519-12.936,20.763
					C239.308,200.55,228.636,209.139,216.08,209.139z M198.19,197.943l0.501,0.566c4.294,4.849,10.632,7.629,17.389,7.629
					c11.341,0,20.933-7.862,22.312-18.289l0.105-0.795l0.719-0.354c7.382-3.638,11.968-10.701,11.968-18.433
					c0-11.496-10.088-20.85-22.488-20.85c-0.146,0-0.294,0.005-0.441,0.009l-0.976,0.028l-0.457-0.716
					c-4.04-6.319-11.459-10.245-19.361-10.245c-12.398,0-22.485,9.354-22.485,20.85l0.024,1.375l-0.807,0.429
					c-6.994,3.716-11.339,10.654-11.339,18.106c0,11.499,10.087,20.854,22.485,20.854c0.664,0,1.351-0.032,2.098-0.098
					L198.19,197.943z" style="fill:#CCCCDE;"></path>
			</g>
			<path d="M228.292,145.111c-0.206,0-0.409,0.011-0.614,0.016
				c-3.354-5.251-8.949-9.111-15.558-10.438c5.229,1.312,9.633,4.492,12.339,8.728c0.175-0.004,2.579,4.149,2.757,4.149
				c11.368,0,16.655,6.123,16.655,16.718c0,7.362-2.757,12.055-9.291,15.271c-1.252,9.473-9.915,16.813-20.423,16.813
				c-6.396,0-12.106-2.72-15.884-6.979c-0.631,0.055-1.271,0.086-1.916,0.086c-11.368,0-20.299-5.389-20.299-15.979
				c0-7.135,3.189-10.646,9.002-14.885c-0.156-0.918-0.804-8.987,1.353-11.142c5.116-5.116,7.435-9.513,12.011-11.784
				c-8.98,3.229-15.357,11.346-15.357,20.854c0,0.159,0.013,0.316,0.017,0.479c-7.246,3.847-12.137,11.104-12.137,19.429
				c0,12.343,10.737,22.35,23.987,22.35c0.754,0,1.496-0.035,2.231-0.1c4.401,4.966,11.06,8.132,18.509,8.132
				c12.245,0,22.338-8.553,23.799-19.592c7.615-3.743,12.812-11.191,12.812-19.771C252.279,155.118,241.541,145.111,228.292,145.111
				z" style="opacity:0.1;fill:#6E6E96;enable-background:new    ;"></path>
			<g>
				<path d="M194.15,180.355c0,0,12.422,2.431,12.422,14.588c0,0,3.345,20.646-9.584,35.259h29.853
					c-0.296-0.41-26.073-34.847,2.615-55.317C211.96,184.887,194.15,180.355,194.15,180.355z" style="fill:#EDE3DA;"></path>
				<path d="M226.841,231.702h-33.183l2.207-2.494c12.288-13.89,9.258-33.826,9.227-34.026l-0.02-0.238
					c0-9.771-9.034-12.57-10.906-13.045c-0.254-0.056-0.386-0.089-0.386-0.089l0.658-2.926c0,0,0.148,0.028,0.414,0.095
					c0.999,0.218,4.531,0.9,9.425,0.9c6.122,0,15.33-1.092,24.435-6.296l1.615,2.522c-7.106,5.071-11.325,11.482-12.537,19.054
					c-2.579,16.108,8.921,32.332,10.241,34.129l1.754,2.389L226.841,231.702z M200.134,228.702h23.868
					c-3.634-5.641-11.454-19.779-9.175-34.017c0.872-5.444,3.125-10.332,6.725-14.611c-6.594,2.236-12.737,2.805-17.274,2.805
					c-0.6,0-1.179-0.009-1.737-0.026c2.908,2.41,5.497,6.182,5.532,11.973C208.345,196.638,210.695,214.473,200.134,228.702z" style="fill:#CCCCDE;"></path>
			</g>
			<g>
				<path d="M202.018,155.975" style="fill:#D57E58;"></path>
			</g>
			<path d="M222.01,180.322c0,0-18.847,24.334-4.361,49.88h9.192
				C226.841,230.202,207.714,203.473,222.01,180.322z" style="opacity:0.11;fill:#6E6E96;enable-background:new    ;"></path>
		</g>
		<g style="display:inline;">
			<g>
				<path d="M88.418,166.416c0-13.111-11.408-23.738-25.479-23.738c-0.22,0-0.436,0.008-0.653,0.014
					c-4.443-6.954-12.589-11.614-21.907-11.614c-14.071,0-25.48,10.629-25.48,23.737c0,0.17,0.011,0.336,0.015,0.507
					c-7.695,4.086-12.889,11.795-12.889,20.64c0,13.107,11.407,23.737,25.479,23.737c0.8,0,1.59-0.041,2.372-0.104
					c4.674,5.271,11.745,8.639,19.659,8.639c13.007,0,23.729-9.082,25.279-20.81C82.903,183.439,88.418,175.531,88.418,166.416z" style="fill:#D7F7E4;"></path>
				<path d="M49.535,209.732c-7.796,0-15.142-3.122-20.277-8.591c-0.62,0.038-1.198,0.057-1.754,0.057
					c-14.876,0-26.979-11.321-26.979-25.237c0-8.772,4.911-16.938,12.877-21.518c0.213-13.745,12.233-24.866,26.977-24.866
					c9.146,0,17.764,4.425,22.703,11.601c14.81,0.073,26.836,11.367,26.836,25.238c0,9.149-5.242,17.508-13.734,21.992
					C74.152,200.621,62.844,209.732,49.535,209.732z M30.501,198.038l0.497,0.561c4.583,5.169,11.339,8.134,18.537,8.134
					c12.094,0,22.322-8.386,23.792-19.506l0.105-0.795l0.719-0.354c7.875-3.878,12.767-11.412,12.767-19.661
					c0-12.263-10.757-22.238-23.979-22.238c-0.162,0-0.321,0.005-0.48,0.01l-0.98,0.026l-0.457-0.715
					c-4.304-6.737-12.214-10.922-20.643-10.922c-13.223,0-23.98,9.976-23.98,22.237l0.036,1.397l-0.817,0.435
					c-7.459,3.96-12.093,11.361-12.093,19.314c0,12.262,10.757,22.237,23.979,22.237c0.689,0,1.425-0.032,2.251-0.1L30.501,198.038z" style="fill:#CCCCDE;"></path>
			</g>
			<path d="M62.511,141.822c-0.219,0-0.435,0.01-0.652,0.015
				c-3.562-5.577-9.506-9.678-16.525-11.085c5.553,1.393,10.231,4.771,13.106,9.27c0.186-0.004,2.739,4.406,2.928,4.406
				c12.076,0,17.692,6.506,17.692,17.758c0,7.82-2.929,12.806-9.87,16.222c-1.33,10.063-10.531,17.854-21.693,17.854
				c-6.792,0-12.859-2.886-16.871-7.412c-0.67,0.058-1.348,0.092-2.035,0.092c-12.076,0-21.561-5.723-21.561-16.975
				c0-7.574,3.391-11.308,9.561-15.807c-0.165-0.975-0.85-9.549,1.437-11.836c5.435-5.434,7.896-10.103,12.758-12.516
				c-9.541,3.43-16.313,12.051-16.313,22.146c0,0.17,0.01,0.338,0.014,0.508c-7.696,4.084-12.889,11.792-12.889,20.639
				c0,13.106,11.407,23.735,25.479,23.735c0.801,0,1.591-0.039,2.373-0.104c4.674,5.272,11.745,8.639,19.659,8.639
				c13.006,0,23.728-9.081,25.278-20.809c8.089-3.979,13.604-11.892,13.604-21.002C87.991,152.449,76.583,141.822,62.511,141.822z" style="opacity:0.1;fill:#6E6E96;enable-background:new    ;"></path>
			<g>
				<path d="M26.248,179.256c0,0,13.193,2.583,13.193,15.496c0,0,3.553,21.932-10.179,37.45h31.707
					c-0.314-0.437-27.694-37.015,2.777-58.759C45.163,184.066,26.248,179.256,26.248,179.256z" style="fill:#EDE3DA;"></path>
				<path d="M60.969,233.702H25.932l2.207-2.494c13.083-14.784,9.855-36.005,9.821-36.217l-0.019-0.239
					c0-10.454-9.661-13.443-11.658-13.948c-0.266-0.059-0.405-0.094-0.405-0.094l0.658-2.926c0,0,0.155,0.029,0.434,0.099
					c1.061,0.231,4.819,0.96,10.029,0.96c6.514,0,16.314-1.163,26.002-6.701l1.616,2.522c-7.567,5.4-12.06,12.228-13.353,20.293
					c-2.748,17.136,9.488,34.414,10.893,36.328l1.751,2.388L60.969,233.702z M32.418,230.702h25.708
					c-3.81-5.884-12.263-21.012-9.824-36.22c0.941-5.872,3.401-11.134,7.34-15.726c-7.116,2.464-13.756,3.086-18.643,3.086
					c-0.734,0-1.44-0.014-2.115-0.038c3.159,2.54,6.021,6.566,6.057,12.829C41.226,196.521,43.755,215.578,32.418,230.702z" style="fill:#CCCCDE;"></path>
			</g>
			<g>
				<path d="M34.603,153.357" style="fill:#D57E58;"></path>
			</g>
			<path d="M55.838,179.221c0,0-20.02,25.848-4.633,52.981h9.764
				C60.969,232.202,40.654,203.811,55.838,179.221z" style="opacity:0.11;fill:#6E6E96;enable-background:new    ;"></path>
		</g>
	</g>
</g>
<g style="display:none;" id="Layer_3">
	<g style="display:inline;">
		<path d="M85.16,142.542c0-11.563-10.059-20.936-22.467-20.936
			c-0.194,0-0.385,0.009-0.576,0.014c-3.917-6.134-11.102-10.245-19.318-10.245c-12.409,0-22.469,9.372-22.469,20.936
			c0,0.149,0.009,0.297,0.012,0.446c-6.785,3.603-11.365,10.399-11.365,18.198c0,11.562,10.059,20.934,22.468,20.934
			c0.705,0,1.403-0.033,2.092-0.094c4.122,4.65,10.358,7.617,17.335,7.617c11.471,0,20.925-8.01,22.293-18.35
			C80.297,157.555,85.16,150.579,85.16,142.542z" style="fill:#D7F7E4;stroke:#CCCCDE;stroke-width:3;"></path>
		<path d="M62.314,120.853c-0.193,0-0.384,0.009-0.575,0.014
			c-3.141-4.918-8.383-8.534-14.573-9.775c4.898,1.229,9.023,4.208,11.558,8.175c0.165-0.004,2.416,3.886,2.583,3.886
			c10.648,0,15.601,5.738,15.601,15.66c0,6.896-2.583,11.291-8.704,14.302c-1.173,8.875-9.287,15.748-19.129,15.748
			c-5.99,0-11.34-2.544-14.877-6.534c-0.591,0.05-1.189,0.079-1.794,0.079c-10.649,0-19.013-5.048-19.013-14.968
			c0-6.683,2.99-9.973,8.432-13.938c-0.145-0.856-0.75-8.421,1.267-10.437c4.792-4.793,6.963-8.909,11.25-11.038
			c-8.414,3.025-14.385,10.627-14.385,19.535c0,0.148,0.009,0.299,0.012,0.447c-6.787,3.604-11.366,10.396-11.366,18.196
			c0,11.563,10.059,20.937,22.468,20.937c0.707,0,1.403-0.035,2.093-0.097c4.121,4.649,10.356,7.617,17.336,7.617
			c11.469,0,20.924-8.011,22.291-18.353c7.133-3.506,11.997-10.479,11.997-18.521C84.783,130.227,74.724,120.853,62.314,120.853z" style="opacity:0.1;fill:#6E6E96;enable-background:new    ;"></path>
		<path d="M30.336,153.865c0,0,11.635,2.277,11.635,13.662
			c0,0,3.132,19.342-8.976,33.026h27.96c-0.277-0.386-24.422-32.643,2.449-51.815C47.016,158.107,30.336,153.865,30.336,153.865z" style="fill:#EDE3DA;stroke:#CCCCDE;stroke-width:3;"></path>
		<g>
			<path d="M37.703,131.025" style="fill:#D57E58;"></path>
		</g>
		<path d="M56.43,153.833c0,0-17.654,22.793-4.085,46.722h8.611
			C60.955,200.555,43.04,175.518,56.43,153.833z" style="opacity:0.11;fill:#6E6E96;enable-background:new    ;"></path>
	</g>
	<g style="display:inline;">
		<path d="M255,141.26c0-10.828-9.42-19.604-21.04-19.604
			c-0.183,0-0.36,0.008-0.539,0.013c-3.669-5.744-10.396-9.595-18.091-9.595c-11.62,0-21.041,8.777-21.041,19.604
			c0,0.141,0.009,0.279,0.012,0.418c-6.354,3.375-10.644,9.739-10.644,17.043c0,10.825,9.421,19.604,21.04,19.604
			c0.66,0,1.312-0.032,1.96-0.089c3.858,4.354,9.698,7.134,16.233,7.134c10.739,0,19.596-7.499,20.875-17.185
			C250.445,155.316,255,148.786,255,141.26z" style="fill:#D7F7E4;stroke:#CCCCDE;stroke-width:3;"></path>
		<path d="M233.605,120.949c-0.183,0-0.358,0.008-0.539,0.012
			c-2.94-4.606-7.852-7.992-13.646-9.154c4.586,1.15,8.449,3.94,10.822,7.655c0.154-0.004,2.263,3.639,2.419,3.639
			c9.971,0,14.608,5.374,14.608,14.665c0,6.459-2.42,10.573-8.148,13.396c-1.1,8.31-8.698,14.743-17.914,14.743
			c-5.607,0-10.619-2.382-13.934-6.118c-0.556,0.047-1.112,0.072-1.681,0.072c-9.975,0-17.806-4.727-17.806-14.016
			c0-6.257,2.8-9.339,7.896-13.055c-0.138-0.805-0.701-7.885,1.188-9.772c4.486-4.488,6.521-8.343,10.535-10.337
			c-7.879,2.833-13.471,9.952-13.471,18.292c0,0.14,0.006,0.276,0.012,0.419c-6.355,3.372-10.646,9.736-10.646,17.04
			c0,10.825,9.42,19.604,21.041,19.604c0.661,0,1.313-0.032,1.959-0.088c3.859,4.354,9.699,7.133,16.234,7.133
			c10.74,0,19.594-7.5,20.875-17.186c6.68-3.285,11.232-9.814,11.232-17.343C254.646,129.727,245.227,120.949,233.605,120.949z" style="opacity:0.1;fill:#6E6E96;enable-background:new    ;"></path>
		<path d="M203.66,151.861c0,0,10.896,2.133,10.896,12.797
			c0,0,2.934,18.109-8.406,30.927h26.184c-0.26-0.358-22.87-30.565,2.294-48.521C219.279,155.836,203.66,151.861,203.66,151.861z" style="fill:#EDE3DA;stroke:#CCCCDE;stroke-width:3;"></path>
		<g>
			<path d="M210.561,130.477" style="fill:#D57E58;"></path>
		</g>
		<path d="M228.096,151.833c0,0-16.531,21.345-3.824,43.752h8.063
			C232.333,195.585,215.557,172.139,228.096,151.833z" style="opacity:0.11;fill:#6E6E96;enable-background:new    ;"></path>
	</g>
	<g style="display:inline;">
		<path d="M218.298,143.02c0-16.622-14.461-30.095-32.299-30.095
			c-0.278,0-0.554,0.012-0.828,0.019c-5.632-8.817-15.959-14.729-27.771-14.729c-17.838,0-32.301,13.475-32.301,30.096
			c0,0.215,0.014,0.429,0.018,0.646c-9.755,5.18-16.339,14.947-16.339,26.158c0,16.62,14.462,30.096,32.3,30.096
			c1.014,0,2.018-0.05,3.008-0.137c5.926,6.688,14.889,10.95,24.921,10.95c16.489,0,30.081-11.514,32.048-26.379
			C211.307,164.602,218.298,154.572,218.298,143.02z" style="fill:#D7F7E4;stroke:#CCCCDE;stroke-width:3;"></path>
		<path d="M185.456,111.841c-0.276,0-0.552,0.012-0.827,0.019
			c-4.516-7.071-12.051-12.269-20.949-14.052c7.041,1.766,12.971,6.049,16.614,11.751c0.237-0.006,3.474,5.586,3.713,5.586
			c15.308,0,22.429,8.248,22.429,22.511c0,9.914-3.715,16.231-12.513,20.562c-1.687,12.754-13.353,22.635-27.5,22.635
			c-8.61,0-16.302-3.655-21.387-9.396c-0.851,0.071-1.71,0.114-2.58,0.114c-15.31,0-27.332-7.254-27.332-21.516
			c0-9.604,4.298-14.337,12.12-20.039c-0.209-1.234-1.077-12.104,1.82-15.002c6.89-6.89,10.011-12.808,16.174-15.868
			c-12.096,4.349-20.679,15.277-20.679,28.08c0,0.215,0.011,0.429,0.017,0.646c-9.756,5.178-16.34,14.948-16.34,26.157
			c0,16.62,14.461,30.096,32.3,30.096c1.017,0,2.017-0.049,3.008-0.135c5.925,6.688,14.89,10.948,24.922,10.948
			c16.487,0,30.078-11.515,32.046-26.379c10.254-5.043,17.244-15.069,17.244-26.623
			C217.756,125.314,203.295,111.841,185.456,111.841z" style="opacity:0.1;fill:#6E6E96;enable-background:new    ;"></path>
		<path d="M139.484,159.296c0,0,16.727,3.272,16.727,19.644
			c0,0,4.504,27.805-12.904,47.479h40.195c-0.398-0.554-35.107-46.922,3.521-74.484
			C163.464,165.396,139.484,159.296,139.484,159.296z" style="fill:#EDE3DA;stroke:#CCCCDE;stroke-width:3;"></path>
		<g>
			<path d="M150.077,126.465" style="fill:#D57E58;"></path>
		</g>
		<path d="M176.997,159.251c0,0-25.378,32.767-5.873,67.164h12.378
			C183.502,226.415,157.748,190.423,176.997,159.251z" style="opacity:0.11;fill:#6E6E96;enable-background:new    ;"></path>
	</g>
	<g style="display:inline;">
		<path d="M146.461,144.131c0-13.645-11.873-24.707-26.517-24.707
			c-0.229,0-0.454,0.01-0.68,0.016c-4.624-7.239-13.102-12.092-22.8-12.092c-14.644,0-26.518,11.063-26.518,24.707
			c0,0.178,0.012,0.354,0.015,0.529c-8.01,4.251-13.414,12.271-13.414,21.477c0,13.646,11.872,24.707,26.518,24.707
			c0.832,0,1.655-0.041,2.469-0.107c4.864,5.486,12.224,8.986,20.46,8.986c13.537,0,24.695-9.45,26.309-21.654
			C140.721,161.85,146.461,153.617,146.461,144.131z" style="fill:#D7F7E4;stroke:#CCCCDE;stroke-width:3;"></path>
		<path d="M119.498,118.535c-0.228,0-0.452,0.009-0.679,0.015
			c-3.707-5.805-9.894-10.072-17.199-11.537c5.78,1.45,10.648,4.966,13.641,9.647c0.194-0.005,2.851,4.586,3.048,4.586
			c12.567,0,18.414,6.771,18.414,18.48c0,8.139-3.05,13.325-10.271,16.881c-1.384,10.472-10.961,18.584-22.576,18.584
			c-7.069,0-13.384-3.004-17.559-7.715c-0.698,0.061-1.404,0.096-2.118,0.096c-12.568,0-22.438-5.957-22.438-17.664
			c0-7.885,3.528-11.771,9.949-16.452c-0.171-1.015-0.884-9.938,1.496-12.316c5.655-5.657,8.218-10.515,13.277-13.028
			c-9.93,3.571-16.978,12.542-16.978,23.053c0,0.177,0.01,0.353,0.015,0.528c-8.011,4.25-13.415,12.271-13.415,21.477
			c0,13.645,11.873,24.706,26.518,24.706c0.834,0,1.655-0.04,2.469-0.108c4.864,5.488,12.224,8.988,20.461,8.988
			c13.536,0,24.693-9.451,26.311-21.656c8.418-4.141,14.158-12.371,14.158-21.854C146.016,129.598,134.143,118.535,119.498,118.535z" style="opacity:0.1;fill:#6E6E96;enable-background:new    ;"></path>
		<path d="M81.757,157.494c0,0,13.731,2.688,13.731,16.128
			c0,0,3.697,22.823-10.595,38.978h33c-0.328-0.455-28.824-38.521,2.89-61.151C101.443,162.502,81.757,157.494,81.757,157.494z" style="fill:#EDE3DA;stroke:#CCCCDE;stroke-width:3;"></path>
		<g>
			<path d="M90.453,130.541" style="fill:#D57E58;"></path>
		</g>
		<path d="M112.553,157.458c0,0-20.835,26.899-4.821,55.142h10.162
			C117.894,212.6,96.75,183.049,112.553,157.458z" style="opacity:0.11;fill:#6E6E96;enable-background:new    ;"></path>
	</g>
	<g style="display:inline;">
		<path d="M253.684,168.268c0-12.345-10.74-22.35-23.988-22.35
			c-0.203,0-0.407,0.008-0.611,0.014c-4.186-6.549-11.854-10.938-20.625-10.938c-13.248,0-23.986,10.007-23.986,22.35
			c0,0.161,0.012,0.318,0.014,0.479c-7.244,3.848-12.135,11.104-12.135,19.43c0,12.347,10.737,22.353,23.986,22.353
			c0.753,0,1.497-0.039,2.23-0.103c4.4,4.967,11.061,8.133,18.511,8.133c12.245,0,22.339-8.551,23.799-19.591
			C248.49,184.295,253.684,176.85,253.684,168.268z" style="fill:#D7F7E4;stroke:#CCCCDE;stroke-width:3;"></path>
		<path d="M229.292,145.111c-0.206,0-0.409,0.011-0.614,0.016
			c-3.354-5.251-8.949-9.111-15.558-10.438c5.229,1.312,9.633,4.492,12.339,8.728c0.175-0.004,2.579,4.149,2.757,4.149
			c11.368,0,16.655,6.123,16.655,16.718c0,7.362-2.757,12.055-9.291,15.271c-1.252,9.473-9.915,16.813-20.423,16.813
			c-6.396,0-12.106-2.72-15.884-6.979c-0.631,0.055-1.271,0.086-1.916,0.086c-11.368,0-20.299-5.389-20.299-15.979
			c0-7.135,3.19-10.646,9.002-14.885c-0.156-0.918-0.803-8.987,1.353-11.141c5.116-5.117,7.435-9.513,12.011-11.785
			c-8.98,3.229-15.357,11.347-15.357,20.854c0,0.159,0.012,0.317,0.016,0.479c-7.246,3.846-12.137,11.103-12.137,19.428
			c0,12.343,10.738,22.35,23.988,22.35c0.754,0,1.496-0.035,2.231-0.1c4.401,4.966,11.06,8.132,18.509,8.132
			c12.245,0,22.338-8.552,23.799-19.591c7.615-3.744,12.811-11.192,12.811-19.771C253.279,155.118,242.541,145.111,229.292,145.111z" style="opacity:0.1;fill:#6E6E96;enable-background:new    ;"></path>
		<path d="M195.15,180.355c0,0,12.422,2.431,12.422,14.588
			c0,0,3.345,20.646-9.584,35.259h29.853c-0.296-0.41-26.073-34.847,2.615-55.317C212.96,184.887,195.15,180.355,195.15,180.355z" style="fill:#EDE3DA;stroke:#CCCCDE;stroke-width:3;"></path>
		<g>
			<path d="M203.018,155.975" style="fill:#D57E58;"></path>
		</g>
		<path d="M223.01,180.322c0,0-18.847,24.334-4.361,49.88h9.192
			C227.841,230.202,208.714,203.473,223.01,180.322z" style="opacity:0.11;fill:#6E6E96;enable-background:new    ;"></path>
	</g>
	<g style="display:inline;">
		<path d="M89.418,166.416c0-13.111-11.408-23.738-25.479-23.738
			c-0.22,0-0.436,0.008-0.653,0.014c-4.443-6.954-12.589-11.615-21.907-11.615c-14.071,0-25.48,10.629-25.48,23.738
			c0,0.17,0.011,0.336,0.015,0.507c-7.695,4.086-12.889,11.795-12.889,20.639c0,13.108,11.407,23.738,25.479,23.738
			c0.8,0,1.59-0.041,2.372-0.105c4.674,5.273,11.745,8.64,19.659,8.64c13.007,0,23.729-9.082,25.279-20.81
			C83.903,183.439,89.418,175.531,89.418,166.416z" style="fill:#D7F7E4;stroke:#CCCCDE;stroke-width:3;"></path>
		<path d="M63.511,141.822c-0.219,0-0.435,0.01-0.652,0.015
			c-3.562-5.577-9.506-9.678-16.525-11.085c5.553,1.393,10.231,4.771,13.106,9.27c0.186-0.004,2.739,4.406,2.928,4.406
			c12.076,0,17.692,6.506,17.692,17.758c0,7.82-2.929,12.806-9.87,16.222c-1.33,10.063-10.531,17.854-21.693,17.854
			c-6.792,0-12.859-2.886-16.871-7.412c-0.67,0.058-1.348,0.092-2.035,0.092c-12.076,0-21.561-5.723-21.561-16.975
			c0-7.574,3.391-11.308,9.561-15.807c-0.165-0.975-0.85-9.549,1.437-11.836c5.435-5.434,7.896-10.103,12.758-12.516
			c-9.541,3.43-16.313,12.051-16.313,22.147c0,0.17,0.01,0.338,0.014,0.508c-7.696,4.084-12.889,11.792-12.889,20.638
			c0,13.107,11.407,23.736,25.479,23.736c0.801,0,1.591-0.039,2.373-0.104c4.674,5.272,11.745,8.638,19.659,8.638
			c13.006,0,23.728-9.081,25.278-20.808c8.089-3.979,13.604-11.892,13.604-21.002C88.991,152.449,77.583,141.822,63.511,141.822z" style="opacity:0.1;fill:#6E6E96;enable-background:new    ;"></path>
		<path d="M27.248,179.256c0,0,13.193,2.583,13.193,15.496
			c0,0,3.553,21.932-10.179,37.45h31.707c-0.314-0.437-27.694-37.015,2.777-58.759C46.163,184.066,27.248,179.256,27.248,179.256z" style="fill:#EDE3DA;stroke:#CCCCDE;stroke-width:3;"></path>
		<g>
			<path d="M35.603,153.357" style="fill:#D57E58;"></path>
		</g>
		<path d="M56.838,179.221c0,0-20.02,25.848-4.633,52.981h9.764
			C61.969,232.202,41.654,203.811,56.838,179.221z" style="opacity:0.11;fill:#6E6E96;enable-background:new    ;"></path>
	</g>
</g>
<g>
	<g>
		<path d="M91.16,140.361c0-13.709-11.93-24.821-26.645-24.821c-0.23,0-0.457,0.006-0.682,0.013
			c-4.646-7.271-13.165-12.147-22.909-12.147c-14.718,0-26.647,11.114-26.647,24.825c0,0.176,0.011,0.354,0.015,0.529
			c-8.046,4.271-13.478,12.328-13.478,21.58c0,13.71,11.929,24.822,26.643,24.822c0.837,0,1.664-0.038,2.481-0.107
			c4.888,5.52,12.283,9.028,20.557,9.028c13.604,0,24.814-9.5,26.436-21.759C85.393,158.163,91.16,149.893,91.16,140.361z" style="fill:#D7F7E4;"></path>
		<path d="M50.495,185.583c-8.152,0-15.825-3.264-21.175-8.979c-0.63,0.039-1.254,0.059-1.863,0.059
			c-15.518,0-28.143-11.809-28.143-26.322c0-9.161,5.136-17.686,13.465-22.458c0.201-14.355,12.75-25.977,28.145-25.977
			c9.554,0,18.556,4.629,23.707,12.135c15.467,0.058,28.03,11.843,28.03,26.321c0,9.556-5.481,18.28-14.359,22.949
			C76.194,176.062,64.389,185.583,50.495,185.583z M30.562,173.496l0.5,0.564c4.797,5.416,11.88,8.522,19.434,8.522
			c12.68,0,23.406-8.794,24.949-20.455l0.105-0.796l0.72-0.354c8.26-4.062,13.391-11.962,13.391-20.617
			c0-12.859-11.28-23.321-25.145-23.321c-0.215,0-0.427,0.006-0.637,0.012l-0.851,0.026l-0.458-0.718
			c-4.515-7.066-12.809-11.455-21.645-11.455c-13.866,0-25.147,10.464-25.147,23.325c0,0.088,0.004,0.176,0.007,0.265l0.028,1.156
			l-0.817,0.434c-7.822,4.152-12.681,11.914-12.681,20.255c0,12.86,11.279,23.322,25.143,23.322c0.764,0,1.556-0.034,2.354-0.102
			L30.562,173.496z" style="fill:#CCCCDE;"></path>
	</g>
	<path d="M64.068,114.643c-0.227,0-0.454,0.011-0.682,0.018
		c-3.725-5.834-9.94-10.122-17.282-11.594c5.808,1.46,10.7,4.991,13.707,9.697c0.194-0.007,2.864,4.609,3.061,4.609
		c12.629,0,18.502,6.803,18.502,18.564c0,8.183-3.064,13.391-10.321,16.963c-1.393,10.522-11.015,18.675-22.685,18.675
		c-7.102,0-13.446-3.017-17.642-7.751c-0.701,0.062-1.41,0.097-2.128,0.097c-12.627,0-22.546-5.985-22.546-17.749
		c0-7.923,3.546-11.824,10-16.523c-0.171-1.021-0.888-9.987,1.504-12.382c5.682-5.685,8.256-10.566,13.34-13.088
		c-9.977,3.588-17.057,12.602-17.057,23.163c0,0.175,0.006,0.353,0.014,0.529c-8.049,4.271-13.481,12.327-13.481,21.582
		c0,13.708,11.929,24.819,26.645,24.819c0.837,0,1.666-0.037,2.481-0.106c4.888,5.521,12.284,9.028,20.558,9.028
		c13.599,0,24.812-9.5,26.435-21.762c8.458-4.156,14.227-12.43,14.227-21.957C90.713,125.757,78.782,114.643,64.068,114.643z" style="opacity:0.1;fill:#6E6E96;enable-background:new    ;"></path>
	<g>
		<path d="M26.147,153.786c0,0,13.797,2.704,13.797,16.208c0,0,3.715,22.935-10.643,39.161h33.155
			c-0.328-0.451-28.96-38.707,2.907-61.447C45.927,158.818,26.147,153.786,26.147,153.786z" style="fill:#EDE3DA;"></path>
		<path d="M62.456,210.655H25.971l2.207-2.494c13.729-15.515,10.322-37.705,10.286-37.927l-0.02-0.24
			c0-10.986-10.15-14.126-12.246-14.656c-0.277-0.062-0.421-0.098-0.421-0.098l0.659-2.926c0,0,0.16,0.03,0.449,0.103
			c1.11,0.242,5.048,1.006,10.507,1.006c6.821,0,17.081-1.218,27.227-7.018l1.616,2.523c-7.938,5.665-12.648,12.831-13.998,21.298
			c-2.869,17.998,9.941,36.021,11.411,38.017l1.76,2.39L62.456,210.655z M32.463,207.655h27.141
			c-3.949-6.057-12.882-21.896-10.331-37.9c0.992-6.225,3.618-11.793,7.834-16.639c-7.524,2.644-14.556,3.307-19.716,3.307
			c-0.844,0-1.652-0.017-2.422-0.047c3.356,2.639,6.438,6.866,6.474,13.5C41.737,171.817,44.407,191.83,32.463,207.655z" style="fill:#CCCCDE;"></path>
	</g>
	<g>
		<path d="M34.885,126.705" style="fill:#D57E58;"></path>
	</g>
	<path d="M57.09,153.753c0,0-20.933,27.027-4.846,55.403h10.212
		C62.456,209.155,41.212,179.467,57.09,153.753z" style="opacity:0.11;fill:#6E6E96;enable-background:new    ;"></path>
</g>
<g>
	<g>
		<path d="M253.562,147.634c0-12.26-10.668-22.197-23.828-22.197c-0.205,0-0.408,0.005-0.61,0.011
			c-4.155-6.502-11.772-10.864-20.487-10.864c-13.16,0-23.828,9.94-23.828,22.202c0,0.157,0.008,0.315,0.012,0.473
			c-7.194,3.82-12.051,11.026-12.051,19.3c0,12.26,10.666,22.198,23.824,22.198c0.749,0,1.488-0.034,2.221-0.096
			c4.369,4.935,10.982,8.073,18.384,8.073c12.166,0,22.19-8.495,23.641-19.459C248.404,163.554,253.562,156.158,253.562,147.634z" style="fill:#D7F7E4;"></path>
		<path d="M217.198,188.234c-7.31,0-14.19-2.916-19.002-8.025c-0.543,0.032-1.08,0.048-1.603,0.048
			c-13.964,0-25.324-10.631-25.324-23.698c0-8.222,4.591-15.874,12.043-20.179c0.232-12.883,11.503-23.296,25.324-23.296
			c8.566,0,16.641,4.138,21.284,10.854c13.88,0.094,25.142,10.688,25.142,23.696c0,8.579-4.905,16.414-12.855,20.627
			C240.276,179.702,229.673,188.234,217.198,188.234z M199.438,177.104l0.499,0.563c4.258,4.81,10.55,7.567,17.261,7.567
			c11.261,0,20.784-7.806,22.153-18.155l0.105-0.796l0.72-0.354c7.331-3.606,11.886-10.617,11.886-18.296
			c0-11.412-10.017-20.697-22.328-20.697c-0.189,0-0.377,0.004-0.563,0.01l-0.852,0.027l-0.459-0.718
			c-4.01-6.274-11.376-10.172-19.224-10.172c-12.312,0-22.328,9.287-22.328,20.702l0.034,1.362l-0.819,0.436
			c-6.941,3.686-11.254,10.573-11.254,17.975c0,11.413,10.015,20.698,22.324,20.698c0.676,0,1.381-0.03,2.095-0.091L199.438,177.104
			z" style="fill:#CCCCDE;"></path>
	</g>
	<path d="M229.335,124.633c-0.203,0-0.405,0.01-0.61,0.016
		c-3.332-5.216-8.89-9.052-15.455-10.368c5.193,1.306,9.569,4.464,12.258,8.672c0.175-0.005,2.562,4.123,2.736,4.123
		c11.295,0,16.547,6.083,16.547,16.602c0,7.318-2.74,11.976-9.229,15.17c-1.246,9.41-9.851,16.7-20.286,16.7
		c-6.352,0-12.025-2.696-15.777-6.931c-0.627,0.055-1.261,0.086-1.901,0.086c-11.294,0-20.164-5.354-20.164-15.873
		c0-7.085,3.172-10.575,8.942-14.777c-0.153-0.912-0.793-8.933,1.346-11.073c5.08-5.083,7.383-9.449,11.93-11.704
		c-8.922,3.209-15.254,11.268-15.254,20.715c0,0.155,0.007,0.313,0.012,0.473c-7.197,3.82-12.055,11.024-12.055,19.302
		c0,12.258,10.668,22.195,23.828,22.195c0.749,0,1.49-0.033,2.219-0.096c4.371,4.937,10.985,8.074,18.385,8.074
		c12.162,0,22.189-8.495,23.641-19.461c7.563-3.718,12.724-11.116,12.724-19.638C253.163,134.573,242.492,124.633,229.335,124.633z" style="opacity:0.1;fill:#6E6E96;enable-background:new    ;"></path>
	<g>
		<path d="M195.422,159.641c0,0,12.339,2.418,12.339,14.493c0,0,3.323,20.511-9.519,35.021h29.65
			c-0.295-0.404-25.897-34.615,2.6-54.951C213.111,164.141,195.422,159.641,195.422,159.641z" style="fill:#EDE3DA;"></path>
		<path d="M227.893,210.655h-32.98l2.207-2.494c12.229-13.818,9.193-33.589,9.161-33.787l-0.02-0.24
			c0-9.702-8.971-12.48-10.83-12.951c-0.249-0.055-0.379-0.088-0.379-0.088l0.658-2.926c0,0,0.146,0.027,0.408,0.093
			c0.991,0.217,4.497,0.896,9.358,0.896c6.081,0,15.228-1.085,24.271-6.255l1.615,2.522c-7.065,5.043-11.256,11.418-12.454,18.95
			c-2.598,16.32,9.654,33.163,10.178,33.872l1.763,2.391L227.893,210.655z M201.388,207.655h23.662
			c-3.617-5.603-11.357-19.59-9.104-33.752c0.86-5.41,3.094-10.27,6.664-14.522c-6.541,2.213-12.632,2.776-17.134,2.776
			c-0.584,0-1.149-0.009-1.694-0.025c2.882,2.396,5.443,6.141,5.479,11.884C209.532,175.819,211.864,193.526,201.388,207.655z" style="fill:#CCCCDE;"></path>
	</g>
	<g>
		<path d="M203.236,135.421" style="fill:#D57E58;"></path>
	</g>
	<path d="M223.094,159.609c0,0-18.719,24.17-4.334,49.547h9.133
		C227.893,209.155,208.896,182.605,223.094,159.609z" style="opacity:0.11;fill:#6E6E96;enable-background:new    ;"></path>
</g>
<g>
	<g>
		<path d="M181.052,129.243c0-15.051-13.098-27.252-29.255-27.252c-0.252,0-0.501,0.007-0.748,0.014
			c-5.102-7.983-14.455-13.338-25.153-13.338c-16.159,0-29.257,12.203-29.257,27.258c0,0.191,0.012,0.388,0.017,0.581
			c-8.834,4.689-14.797,13.535-14.797,23.693c0,15.053,13.097,27.253,29.252,27.253c0.92,0,1.828-0.042,2.725-0.117
			c5.366,6.06,13.486,9.912,22.57,9.912c14.937,0,27.244-10.431,29.025-23.89C174.719,148.789,181.052,139.708,181.052,129.243z" style="fill:#D7F7E4;"></path>
		<path d="M136.406,178.747c-8.935,0-17.341-3.585-23.189-9.862c-0.715,0.045-1.421,0.067-2.106,0.067
			c-16.957,0-30.752-12.898-30.752-28.753c0-10.032,5.64-19.366,14.782-24.572c0.17-15.721,13.901-28.46,30.755-28.46
			c10.468,0,20.33,5.084,25.951,13.324c16.936,0.025,30.705,12.914,30.705,28.752c0,10.459-6.014,20.008-15.749,25.101
			C164.533,168.312,151.615,178.747,136.406,178.747z M114.46,165.777l0.499,0.563c5.294,5.978,13.111,9.406,21.447,9.406
			c13.995,0,25.834-9.71,27.538-22.587l0.105-0.795l0.72-0.354c9.118-4.485,14.782-13.21,14.782-22.769
			c0-14.2-12.451-25.752-27.755-25.752c-0.238,0-0.474,0.007-0.706,0.013l-0.849,0.023l-0.457-0.715
			c-4.985-7.8-14.139-12.646-23.889-12.646c-15.305,0-27.757,11.555-27.757,25.758c0,0.105,0.004,0.212,0.009,0.319l0.034,1.151
			l-0.822,0.436c-8.636,4.584-14,13.156-14,22.369c0,14.2,12.45,25.753,27.752,25.753c0.839,0,1.714-0.038,2.6-0.112L114.46,165.777
			z" style="fill:#CCCCDE;"></path>
	</g>
	<path d="M151.307,101.006c-0.248,0-0.498,0.011-0.748,0.019
		c-4.092-6.405-10.916-11.113-18.976-12.729c6.377,1.603,11.748,5.48,15.049,10.647c0.214-0.008,3.146,5.061,3.36,5.061
		c13.865,0,20.312,7.469,20.312,20.382c0,8.984-3.363,14.703-11.33,18.625c-1.531,11.556-12.095,20.505-24.906,20.505
		c-7.798,0-14.764-3.313-19.371-8.511c-0.771,0.066-1.548,0.104-2.336,0.104c-13.864,0-24.754-6.571-24.754-19.486
		c0-8.698,3.894-12.983,10.979-18.143c-0.188-1.119-0.975-10.965,1.651-13.595c6.238-6.241,9.064-11.6,14.646-14.37
		c-10.954,3.94-18.727,13.835-18.727,25.432c0,0.19,0.007,0.387,0.015,0.582c-8.838,4.689-14.801,13.534-14.801,23.696
		c0,15.051,13.097,27.252,29.254,27.252c0.919,0,1.829-0.043,2.724-0.119c5.367,6.062,13.487,9.914,22.571,9.914
		c14.933,0,27.242-10.431,29.024-23.895c9.285-4.562,15.619-13.646,15.619-24.107C180.561,113.209,167.46,101.006,151.307,101.006z" style="opacity:0.1;fill:#6E6E96;enable-background:new    ;"></path>
	<g>
		<path d="M109.671,143.982c0,0,15.148,2.97,15.148,17.795c0,0,4.08,25.183-11.686,42.996h36.402
			c-0.36-0.494-31.796-42.496,3.191-67.463C131.389,149.509,109.671,143.982,109.671,143.982z" style="fill:#EDE3DA;"></path>
		<path d="M149.535,206.273h-39.733l2.208-2.494c15.092-17.053,11.368-41.518,11.328-41.763l-0.019-0.239
			c0-12.174-11.243-15.649-13.558-16.234c-0.303-0.066-0.46-0.107-0.46-0.107l0.659-2.925c0,0,0.174,0.033,0.488,0.111
			c1.221,0.267,5.56,1.109,11.573,1.109c7.505,0,18.796-1.34,29.962-7.723l1.615,2.522c-8.752,6.246-13.943,14.148-15.43,23.488
			c-3.21,20.175,11.913,40.967,12.559,41.842l1.763,2.391L149.535,206.273z M116.31,203.273h30.364
			c-4.235-6.438-14.292-23.98-11.469-41.726c1.113-6.992,4.111-13.228,8.945-18.63c-8.442,3.055-16.356,3.813-22.13,3.813
			c-1.097,0-2.139-0.026-3.121-0.071c3.798,2.855,7.381,7.527,7.419,14.999C126.633,163.725,129.617,185.881,116.31,203.273z" style="fill:#CCCCDE;"></path>
	</g>
	<g>
		<path d="M119.265,114.25" style="fill:#D57E58;"></path>
	</g>
	<path d="M143.645,143.947c0,0-22.981,29.674-5.319,60.828h11.212
		C149.536,204.773,126.212,172.179,143.645,143.947z" style="opacity:0.11;fill:#6E6E96;enable-background:new    ;"></path>
</g>
<g>
	<g>
		<path d="M117.489,146.043H58.75c-5.5,0-10,4.5-10,10v84c0,5.5,4.5,10,10,10h137c5.5,0,10-4.5,10-10v-84
			c0-5.5-4.5-10-10-10h-12.846" style="fill:#9898B3;"></path>
		<path d="M195.75,251.543h-137c-6.341,0-11.5-5.159-11.5-11.5v-84c0-6.341,5.159-11.5,11.5-11.5h58.739
			c0.829,0,1.5,0.672,1.5,1.5s-0.671,1.5-1.5,1.5H58.75c-4.687,0-8.5,3.813-8.5,8.5v84c0,4.687,3.813,8.5,8.5,8.5h137
			c4.687,0,8.5-3.813,8.5-8.5v-84c0-4.687-3.813-8.5-8.5-8.5h-12.846c-0.828,0-1.5-0.672-1.5-1.5s0.672-1.5,1.5-1.5h12.846
			c6.341,0,11.5,5.159,11.5,11.5v84C207.25,246.384,202.091,251.543,195.75,251.543z" style="fill:#6E6E96;"></path>
	</g>
	<g>
		<rect height="9" width="22" style="fill:#BBBBCC;" y="139.043" x="66.75"></rect>
		<path d="M88.75,149.543h-22c-0.829,0-1.5-0.672-1.5-1.5v-9c0-0.828,0.671-1.5,1.5-1.5h22
			c0.829,0,1.5,0.672,1.5,1.5v9C90.25,148.871,89.579,149.543,88.75,149.543z M68.25,146.543h19v-6h-19V146.543z" style="fill:#6E6E96;"></path>
	</g>
	<g>
		<path d="M48.75,240.043c0,5.5,4.5,10,10,10h18.333c5.5,0,10-4.5,10-10v-84c0-5.5-4.5-10-10-10H58.75
			c-5.5,0-10,4.5-10,10V240.043z" style="fill:#9898B3;"></path>
		<path d="M77.083,251.543H58.75c-6.341,0-11.5-5.159-11.5-11.5v-84c0-6.341,5.159-11.5,11.5-11.5h18.333
			c6.341,0,11.5,5.159,11.5,11.5v84C88.583,246.384,83.424,251.543,77.083,251.543z M58.75,147.543c-4.687,0-8.5,3.813-8.5,8.5v84
			c0,4.687,3.813,8.5,8.5,8.5h18.333c4.687,0,8.5-3.813,8.5-8.5v-84c0-4.687-3.813-8.5-8.5-8.5H58.75z" style="fill:#6E6E96;"></path>
	</g>
	<g>
		<path d="M195.75,146.043h-137c-5.5,0-10,4.5-10,10v7.667h157v-7.667
			C205.75,150.543,201.25,146.043,195.75,146.043z" style="fill:#BBBBCC;"></path>
		<path d="M205.75,165.21h-157c-0.829,0-1.5-0.672-1.5-1.5v-7.667c0-6.341,5.159-11.5,11.5-11.5h137
			c6.341,0,11.5,5.159,11.5,11.5v7.667C207.25,164.538,206.578,165.21,205.75,165.21z M50.25,162.21h154v-6.167
			c0-4.687-3.813-8.5-8.5-8.5h-137c-4.687,0-8.5,3.813-8.5,8.5V162.21z" style="fill:#6E6E96;"></path>
	</g>
	<rect height="2.321" width="154.137" style="opacity:0.2;fill:#6E6E96;enable-background:new    ;" y="160.043" x="50.157"></rect>
	<rect height="2.833" width="154.333" style="opacity:0.15;fill:#6E6E96;enable-background:new    ;" y="165.21" x="50.083"></rect>
	<path d="M59.975,152.998h134.501c5.399,0,9.817,4.215,9.817,9.366
		v-5.62c0-6.902-4.418-9.367-9.817-9.367H59.975c-5.4,0-9.818,4.215-9.818,9.367v5.62C50.157,157.213,54.575,152.998,59.975,152.998
		z" style="opacity:0.2;fill:#F0F0FF;enable-background:new    ;"></path>
	<g>
		<path d="M48.75,240.043c0,5.5,4.5,10,10,10h137c5.5,0,10-4.5,10-10v-7.666h-157V240.043z" style="fill:#BBBBCC;"></path>
		<path d="M195.75,251.543h-137c-6.341,0-11.5-5.159-11.5-11.5v-7.666c0-0.828,0.671-1.5,1.5-1.5h157
			c0.828,0,1.5,0.672,1.5,1.5v7.666C207.25,246.384,202.091,251.543,195.75,251.543z M50.25,233.877v6.166
			c0,4.687,3.813,8.5,8.5,8.5h137c4.687,0,8.5-3.813,8.5-8.5v-6.166H50.25z" style="fill:#6E6E96;"></path>
	</g>
	<g style="opacity:0.37;">
		<g>
			<rect height="3.334" width="3.333" style="fill:#6E6E96;" y="170.043" x="92.083"></rect>
			<rect height="3.334" width="3.333" style="fill:#6E6E96;" y="170.043" x="100.833"></rect>
			<rect height="3.334" width="3.333" style="fill:#6E6E96;" y="170.043" x="109.583"></rect>
			<rect height="3.334" width="3.333" style="fill:#6E6E96;" y="170.043" x="118.333"></rect>
			<rect height="3.334" width="3.333" style="fill:#6E6E96;" y="170.043" x="127.083"></rect>
			<rect height="3.334" width="3.333" style="fill:#6E6E96;" y="170.043" x="135.833"></rect>
			<rect height="3.334" width="3.333" style="fill:#6E6E96;" y="170.043" x="144.583"></rect>
			<rect height="3.334" width="3.333" style="fill:#6E6E96;" y="170.043" x="153.333"></rect>
			<rect height="3.334" width="3.333" style="fill:#6E6E96;" y="170.043" x="162.083"></rect>
			<rect height="3.334" width="3.333" style="fill:#6E6E96;" y="170.043" x="170.833"></rect>
			<rect height="3.334" width="3.333" style="fill:#6E6E96;" y="170.043" x="179.583"></rect>
			<rect height="3.334" width="3.333" style="fill:#6E6E96;" y="170.043" x="188.333"></rect>
			<rect height="3.334" width="3.333" style="fill:#6E6E96;" y="170.043" x="197.083"></rect>
		</g>
		<g>
			<rect height="3.334" width="3.333" style="fill:#6E6E96;" y="179.043" x="92.083"></rect>
			<rect height="3.334" width="3.333" style="fill:#6E6E96;" y="179.043" x="100.833"></rect>
			<rect height="3.334" width="3.333" style="fill:#6E6E96;" y="179.043" x="109.583"></rect>
			<rect height="3.334" width="3.333" style="fill:#6E6E96;" y="179.043" x="118.333"></rect>
			<rect height="3.334" width="3.333" style="fill:#6E6E96;" y="179.043" x="127.083"></rect>
			<rect height="3.334" width="3.333" style="fill:#6E6E96;" y="179.043" x="135.833"></rect>
			<rect height="3.334" width="3.333" style="fill:#6E6E96;" y="179.043" x="144.583"></rect>
			<rect height="3.334" width="3.333" style="fill:#6E6E96;" y="179.043" x="153.333"></rect>
			<rect height="3.334" width="3.333" style="fill:#6E6E96;" y="179.043" x="162.083"></rect>
			<rect height="3.334" width="3.333" style="fill:#6E6E96;" y="179.043" x="170.833"></rect>
			<rect height="3.334" width="3.333" style="fill:#6E6E96;" y="179.043" x="179.583"></rect>
			<rect height="3.334" width="3.333" style="fill:#6E6E96;" y="179.043" x="188.333"></rect>
			<rect height="3.334" width="3.333" style="fill:#6E6E96;" y="179.043" x="197.083"></rect>
		</g>
		<g>
			<rect height="3.334" width="3.333" style="fill:#6E6E96;" y="188.043" x="92.083"></rect>
			<rect height="3.334" width="3.333" style="fill:#6E6E96;" y="188.043" x="100.833"></rect>
			<rect height="3.334" width="3.333" style="fill:#6E6E96;" y="188.043" x="109.583"></rect>
			<rect height="3.334" width="3.333" style="fill:#6E6E96;" y="188.043" x="118.333"></rect>
			<rect height="3.334" width="3.333" style="fill:#6E6E96;" y="188.043" x="127.083"></rect>
			<rect height="3.334" width="3.333" style="fill:#6E6E96;" y="188.043" x="135.833"></rect>
			<rect height="3.334" width="3.333" style="fill:#6E6E96;" y="188.043" x="144.583"></rect>
			<rect height="3.334" width="3.333" style="fill:#6E6E96;" y="188.043" x="153.333"></rect>
			<rect height="3.334" width="3.333" style="fill:#6E6E96;" y="188.043" x="162.083"></rect>
			<rect height="3.334" width="3.333" style="fill:#6E6E96;" y="188.043" x="170.833"></rect>
			<rect height="3.334" width="3.333" style="fill:#6E6E96;" y="188.043" x="179.583"></rect>
			<rect height="3.334" width="3.333" style="fill:#6E6E96;" y="188.043" x="188.333"></rect>
			<rect height="3.334" width="3.333" style="fill:#6E6E96;" y="188.043" x="197.083"></rect>
		</g>
		<g>
			<rect height="3.334" width="3.333" style="fill:#6E6E96;" y="197.043" x="92.083"></rect>
			<rect height="3.334" width="3.333" style="fill:#6E6E96;" y="197.043" x="100.833"></rect>
			<rect height="3.334" width="3.333" style="fill:#6E6E96;" y="197.043" x="109.583"></rect>
			<rect height="3.334" width="3.333" style="fill:#6E6E96;" y="197.043" x="118.333"></rect>
			<rect height="3.334" width="3.333" style="fill:#6E6E96;" y="197.043" x="127.083"></rect>
			<rect height="3.334" width="3.333" style="fill:#6E6E96;" y="197.043" x="135.833"></rect>
			<rect height="3.334" width="3.333" style="fill:#6E6E96;" y="197.043" x="144.583"></rect>
			<rect height="3.334" width="3.333" style="fill:#6E6E96;" y="197.043" x="153.333"></rect>
			<rect height="3.334" width="3.333" style="fill:#6E6E96;" y="197.043" x="162.083"></rect>
			<rect height="3.334" width="3.333" style="fill:#6E6E96;" y="197.043" x="170.833"></rect>
			<rect height="3.334" width="3.333" style="fill:#6E6E96;" y="197.043" x="179.583"></rect>
			<rect height="3.334" width="3.333" style="fill:#6E6E96;" y="197.043" x="188.333"></rect>
			<rect height="3.334" width="3.333" style="fill:#6E6E96;" y="197.043" x="197.083"></rect>
		</g>
		<g>
			<rect height="3.334" width="3.333" style="fill:#6E6E96;" y="206.043" x="92.083"></rect>
			<rect height="3.334" width="3.333" style="fill:#6E6E96;" y="206.043" x="100.833"></rect>
			<rect height="3.334" width="3.333" style="fill:#6E6E96;" y="206.043" x="109.583"></rect>
			<rect height="3.334" width="3.333" style="fill:#6E6E96;" y="206.043" x="118.333"></rect>
			<rect height="3.334" width="3.333" style="fill:#6E6E96;" y="206.043" x="127.083"></rect>
			<rect height="3.334" width="3.333" style="fill:#6E6E96;" y="206.043" x="135.833"></rect>
			<rect height="3.334" width="3.333" style="fill:#6E6E96;" y="206.043" x="144.583"></rect>
			<rect height="3.334" width="3.333" style="fill:#6E6E96;" y="206.043" x="153.333"></rect>
			<rect height="3.334" width="3.333" style="fill:#6E6E96;" y="206.043" x="162.083"></rect>
			<rect height="3.334" width="3.333" style="fill:#6E6E96;" y="206.043" x="170.833"></rect>
			<rect height="3.334" width="3.333" style="fill:#6E6E96;" y="206.043" x="179.583"></rect>
			<rect height="3.334" width="3.333" style="fill:#6E6E96;" y="206.043" x="188.333"></rect>
			<rect height="3.334" width="3.333" style="fill:#6E6E96;" y="206.043" x="197.083"></rect>
		</g>
		<g>
			<rect height="3.333" width="3.333" style="fill:#6E6E96;" y="215.044" x="92.083"></rect>
			<rect height="3.333" width="3.333" style="fill:#6E6E96;" y="215.044" x="100.833"></rect>
			<rect height="3.333" width="3.333" style="fill:#6E6E96;" y="215.044" x="109.583"></rect>
			<rect height="3.333" width="3.333" style="fill:#6E6E96;" y="215.044" x="118.333"></rect>
			<rect height="3.333" width="3.333" style="fill:#6E6E96;" y="215.044" x="127.083"></rect>
			<rect height="3.333" width="3.333" style="fill:#6E6E96;" y="215.044" x="135.833"></rect>
			<rect height="3.333" width="3.333" style="fill:#6E6E96;" y="215.044" x="144.583"></rect>
			<rect height="3.333" width="3.333" style="fill:#6E6E96;" y="215.044" x="153.333"></rect>
			<rect height="3.333" width="3.333" style="fill:#6E6E96;" y="215.044" x="162.083"></rect>
			<rect height="3.333" width="3.333" style="fill:#6E6E96;" y="215.044" x="170.833"></rect>
			<rect height="3.333" width="3.333" style="fill:#6E6E96;" y="215.044" x="179.583"></rect>
			<rect height="3.333" width="3.333" style="fill:#6E6E96;" y="215.044" x="188.333"></rect>
			<rect height="3.333" width="3.333" style="fill:#6E6E96;" y="215.044" x="197.083"></rect>
		</g>
		<g>
			<rect height="3.333" width="3.333" style="fill:#6E6E96;" y="224.044" x="92.083"></rect>
			<rect height="3.333" width="3.333" style="fill:#6E6E96;" y="224.044" x="100.833"></rect>
			<rect height="3.333" width="3.333" style="fill:#6E6E96;" y="224.044" x="109.583"></rect>
			<rect height="3.333" width="3.333" style="fill:#6E6E96;" y="224.044" x="118.333"></rect>
			<rect height="3.333" width="3.333" style="fill:#6E6E96;" y="224.044" x="127.083"></rect>
			<rect height="3.333" width="3.333" style="fill:#6E6E96;" y="224.044" x="135.833"></rect>
			<rect height="3.333" width="3.333" style="fill:#6E6E96;" y="224.044" x="144.583"></rect>
			<rect height="3.333" width="3.333" style="fill:#6E6E96;" y="224.044" x="153.333"></rect>
			<rect height="3.333" width="3.333" style="fill:#6E6E96;" y="224.044" x="162.083"></rect>
			<rect height="3.333" width="3.333" style="fill:#6E6E96;" y="224.044" x="170.833"></rect>
			<rect height="3.333" width="3.333" style="fill:#6E6E96;" y="224.044" x="179.583"></rect>
			<rect height="3.333" width="3.333" style="fill:#6E6E96;" y="224.044" x="188.333"></rect>
			<rect height="3.333" width="3.333" style="fill:#6E6E96;" y="224.044" x="197.083"></rect>
		</g>
	</g>
	<rect height="3.168" width="149.833" style="opacity:0.25;fill:#F0F0FF;enable-background:new    ;" y="234.043" x="50.25"></rect>
	<g>
		<path d="M178.083,163.71l-10.319-32.21c-1.666-5.201-7.222-9.457-12.344-9.457h-19.869
			c-5.123,0-10.504,4.315-11.958,9.589l-8.844,32.077" style="fill:#CCCCDE;"></path>
		<path d="M178.083,165.21L178.083,165.21l-63.334-0.001c-0.468,0-0.91-0.219-1.193-0.591
			c-0.284-0.373-0.377-0.856-0.253-1.308l8.844-32.077c1.372-4.978,4.136-10.69,13.404-10.69h19.869
			c9.226,0,12.206,5.611,13.772,10.499l10.319,32.21c0.146,0.457,0.065,0.955-0.217,1.342
			C179.013,164.981,178.562,165.21,178.083,165.21z M116.719,162.209l59.309,0.001l-9.692-30.252
			c-1.399-4.371-3.691-8.415-10.915-8.415h-19.869c-6.782,0-9.107,3.393-10.512,8.487L116.719,162.209z" style="fill:#6E6E96;"></path>
	</g>
	<g>
		<circle r="10.313" cy="198.357" cx="192.062" style="fill:#BBBBCC;"></circle>
		<path d="M192.062,210.17c-6.514,0-11.812-5.299-11.812-11.812s5.299-11.813,11.812-11.813
			s11.813,5.3,11.813,11.813S198.576,210.17,192.062,210.17z M192.062,189.544c-4.859,0-8.812,3.954-8.812,8.813
			s3.953,8.812,8.812,8.812s8.813-3.953,8.813-8.812S196.922,189.544,192.062,189.544z" style="fill:#6E6E96;"></path>
	</g>
	<path d="M115.749,163.96l2.666-11.485l-3.166,11.485H115.749z
		 M168.264,131.75c-1.666-5.201-7.222-9.457-12.344-9.457h-5.922c4.312,0,8.991,4.255,10.395,9.457l8.69,32.21h9.5L168.264,131.75z" style="opacity:0.2;fill:#6E6E96;enable-background:new    ;"></path>
	<g>
		<circle r="48.334" cy="196.794" cx="146.333" style="fill:#DADAED;"></circle>
		<path d="M146.333,246.628c-27.479,0-49.834-22.355-49.834-49.834s22.355-49.834,49.834-49.834
			s49.834,22.355,49.834,49.834S173.812,246.628,146.333,246.628z M146.333,149.96c-25.824,0-46.834,21.01-46.834,46.834
			s21.01,46.834,46.834,46.834s46.834-21.01,46.834-46.834S172.157,149.96,146.333,149.96z" style="fill:#6E6E96;"></path>
	</g>
	<g>
		<circle r="41.333" cy="196.794" cx="146.333" style="fill:#A1A1B0;"></circle>
		<path d="M146.333,239.627c-23.618,0-42.833-19.215-42.833-42.833s19.215-42.833,42.833-42.833
			s42.833,19.215,42.833,42.833S169.951,239.627,146.333,239.627z M146.333,156.961c-21.964,0-39.833,17.869-39.833,39.833
			s17.869,39.833,39.833,39.833s39.833-17.869,39.833-39.833S168.297,156.961,146.333,156.961z" style="fill:#6E6E96;"></path>
	</g>
	<circle r="35.583" cy="196.544" cx="146.083" style="fill:#9595A3;"></circle>
	<g>
		<circle r="29.133" cy="196.594" cx="146.49" style="fill:#B1B3DB;"></circle>
		<path d="M146.49,227.227c-16.892,0-30.633-13.742-30.633-30.633s13.742-30.633,30.633-30.633
			c16.891,0,30.633,13.742,30.633,30.633S163.381,227.227,146.49,227.227z M146.49,168.961c-15.237,0-27.633,12.396-27.633,27.633
			s12.396,27.633,27.633,27.633c15.236,0,27.633-12.396,27.633-27.633S161.727,168.961,146.49,168.961z" style="fill:#6E6E96;"></path>
	</g>
	<circle r="17.375" cy="196.668" cx="146.125" style="opacity:0.41;fill:#F0F0FF;enable-background:new    ;"></circle>
	<g>
		<path d="M158.75,136.043c0,2.201-1.8,4-4,4h-18c-2.2,0-4-1.799-4-4l0,0c0-2.199,1.8-4,4-4h18
			C156.95,132.043,158.75,133.844,158.75,136.043L158.75,136.043z" style="fill:#FFF3A8;"></path>
		<path d="M154.75,141.543h-18c-3.032,0-5.5-2.468-5.5-5.5s2.468-5.5,5.5-5.5h18c3.032,0,5.5,2.468,5.5,5.5
			S157.782,141.543,154.75,141.543z M136.75,133.543c-1.379,0-2.5,1.121-2.5,2.5s1.121,2.5,2.5,2.5h18c1.379,0,2.5-1.121,2.5-2.5
			s-1.121-2.5-2.5-2.5H136.75z" style="fill:#6E6E96;"></path>
	</g>
	<rect height="65.333" width="8" style="opacity:0.25;fill:#F0F0FF;enable-background:new    ;" y="165.21" x="50.083"></rect>
	<path d="M147.2,168.17c-4.571,0-8.894,1.055-12.743,2.93
		c2.938-1.219,6.154-1.894,9.531-1.894c13.742,0,24.884,11.14,24.884,24.884c0,13.742-11.142,24.885-24.884,24.885
		c-13.745,0-24.886-11.143-24.886-24.885c0-3.377,0.676-6.596,1.896-9.533c-1.876,3.852-2.932,8.176-2.932,12.746
		c0,16.09,13.043,29.133,29.134,29.133c16.09,0,29.133-13.043,29.133-29.133S163.29,168.17,147.2,168.17z" style="opacity:0.2;fill:#6E6E96;enable-background:new    ;"></path>
	<circle r="2.792" cy="194.678" cx="144.396" style="fill:#F0F0FF;"></circle>
	<rect height="67.333" width="6.667" style="opacity:0.2;fill:#6E6E96;enable-background:new    ;" y="163.71" x="80.417"></rect>
	<rect height="65.875" width="14.958" style="opacity:0.38;fill:#6E6E96;enable-background:new    ;" y="165.168" x="72.125"></rect>
	<path d="M200.083,168.043v74.994
		c-1.313,0.638-2.781,1.006-4.333,1.006h-137c-5.5,0-10-4.5-10-10v6c0,5.5,4.5,10,10,10h137c4.07,0,7.59-2.469,9.146-5.98h0.854
		v-76.02H200.083z" style="opacity:0.2;fill:#6E6E96;enable-background:new    ;"></path>
	<path d="M139.848,180.059c2.01,2.121-0.912,4.297-4.082,7.304c-3.17,3.006-5.39,5.702-7.399,3.584
		c-2.01-2.121-1.069-6.276,2.101-9.282C133.637,178.657,137.837,177.939,139.848,180.059z" style="fill:#F0F0FF;"></path>
	<circle r="2.5" cy="154.293" cx="102" style="fill:#6E6E96;"></circle>
	<rect height="8.334" width="3" style="fill:#6E6E96;" y="139.043" x="81.919"></rect>
	<rect height="7" width="3" style="fill:#6E6E96;" y="139.043" x="76.374"></rect>
	<rect height="5.915" width="3" style="fill:#6E6E96;" y="140.128" x="70.458"></rect>
	<g>
		<rect height="6" width="10.334" style="fill:#CCCCDE;" y="140.043" x="103.083"></rect>
		<path d="M113.417,147.543h-10.334c-0.829,0-1.5-0.672-1.5-1.5v-6c0-0.828,0.671-1.5,1.5-1.5h10.334
			c0.829,0,1.5,0.672,1.5,1.5v6C114.917,146.871,114.246,147.543,113.417,147.543z M104.583,144.543h7.334v-3h-7.334V144.543z" style="fill:#6E6E96;"></path>
	</g>
	<rect height="56.5" width="3" style="opacity:0.4;fill:#6E6E96;enable-background:new    ;" y="169.543" x="70.776"></rect>
	<rect height="56.5" width="3" style="opacity:0.4;fill:#6E6E96;enable-background:new    ;" y="169.543" x="62.902"></rect>
	<rect height="56.5" width="3" style="opacity:0.4;fill:#6E6E96;enable-background:new    ;" y="169.543" x="55.25"></rect>
	<rect height="56.5" width="3" style="opacity:0.4;fill:#6E6E96;enable-background:new    ;" y="169.543" x="79.104"></rect>
</g>
<g>
	<path d="M228.514,34.443c0-0.077,0.006-0.153,0.006-0.231c0-8.173-7.209-14.798-16.104-14.798
		c-7.654,0-14.061,4.912-15.693,11.492c-0.252-0.018-0.506-0.03-0.762-0.03c-5.29,0-9.578,3.941-9.578,8.802
		c0,1.042,0.199,2.041,0.561,2.969c-1.482,1.928-2.358,4.282-2.358,6.824c0,6.443,5.606,11.68,12.584,11.82v0.006h24.741
		c8.479,0,15.354-6.317,15.354-14.112C237.264,41.564,233.688,36.713,228.514,34.443z" style="fill:#FFFFFF;"></path>
	<path d="M221.91,62.797h-24.741c-0.058,0-0.115-0.003-0.171-0.01c-7.685-0.224-13.913-6.171-13.913-13.316
		c0-2.523,0.755-4.952,2.189-7.074c-0.26-0.885-0.392-1.796-0.392-2.719c0-5.569,4.777-10.12,10.721-10.296
		c2.26-6.81,8.998-11.467,16.812-11.467c9.444,0,17.176,6.922,17.586,15.574c5.354,2.723,8.762,8.001,8.762,13.697
		C238.764,55.793,231.203,62.797,221.91,62.797z M197.302,59.797h24.608c7.639,0,13.854-5.658,13.854-12.612
		c0-4.813-3.082-9.275-7.853-11.369c-0.545-0.239-0.897-0.778-0.897-1.374l0.004-0.171c0.002-7.392-6.549-13.357-14.602-13.357
		c-6.761,0-12.749,4.354-14.237,10.354c-0.176,0.708-0.837,1.189-1.563,1.135c-0.217-0.016-0.435-0.026-0.654-0.026
		c-4.454,0-8.078,3.275-8.078,7.302c0,0.828,0.154,1.644,0.458,2.425c0.19,0.489,0.111,1.042-0.208,1.458
		c-1.34,1.743-2.048,3.786-2.048,5.91c0,5.568,4.985,10.198,11.114,10.321C197.233,59.792,197.268,59.794,197.302,59.797z" style="fill:#CCCCDE;"></path>
</g>
<g id="Layer_7">
	<path d="M53.692,58.343c0-0.062,0.005-0.13,0.005-0.195c0-6.913-6.099-12.518-13.621-12.518
		c-6.476,0-11.894,4.154-13.276,9.721c-0.212-0.015-0.427-0.024-0.643-0.024c-4.475,0-8.102,3.334-8.102,7.444
		c0,0.882,0.168,1.728,0.474,2.513c-1.257,1.631-1.997,3.621-1.997,5.771c0,5.45,4.744,9.88,10.645,9.999v0.005h20.928
		c7.174,0,12.99-5.345,12.99-11.938C61.095,64.368,58.068,60.263,53.692,58.343z" style="fill:#FFFFFF;"></path>
	<path d="M48.105,82.559H27.177c-0.056,0-0.112-0.003-0.167-0.009c-6.618-0.201-11.978-5.331-11.978-11.495
		c0-2.147,0.631-4.213,1.833-6.022c-0.206-0.736-0.31-1.494-0.31-2.261c0-4.784,4.054-8.703,9.13-8.933
		c1.992-5.772,7.739-9.708,14.391-9.708c8.063,0,14.673,5.882,15.099,13.261c4.539,2.359,7.42,6.868,7.42,11.73
		C62.595,76.531,56.095,82.559,48.105,82.559z M27.304,79.559h20.801c6.336,0,11.49-4.683,11.49-10.438
		c0-3.979-2.554-7.671-6.506-9.405c-0.545-0.239-0.897-0.778-0.897-1.374c0-0.019,0.003-0.133,0.003-0.151
		c0.001-6.119-5.436-11.062-12.119-11.062c-5.614,0-10.586,3.609-11.821,8.583c-0.176,0.708-0.825,1.192-1.562,1.135
		c-0.177-0.013-0.356-0.02-0.536-0.02c-3.64,0-6.602,2.667-6.602,5.944c0,0.673,0.125,1.336,0.372,1.969
		c0.19,0.49,0.111,1.043-0.21,1.459c-1.102,1.43-1.685,3.109-1.685,4.855c0,4.585,4.116,8.397,9.175,8.5
		C27.24,79.555,27.272,79.556,27.304,79.559z" style="fill:#CCCCDE;"></path>
</g>
</svg>
