<?xml version="1.0" standalone="no"?><!DOCTYPE svg PUBLIC "-//W3C//DTD SVG 1.1//EN" "http://www.w3.org/Graphics/SVG/1.1/DTD/svg11.dtd"><svg t="1678717386324" class="icon" viewBox="0 0 1024 1024" version="1.1" xmlns="http://www.w3.org/2000/svg" p-id="7511" xmlns:xlink="http://www.w3.org/1999/xlink" width="200" height="200"><path d="M125.274487 859.874564l-13.082462-13.4789L984.752613 0v1021.62137h-19.029036V44.797522z" fill="#F2F2F2" p-id="7512"></path><path d="M138.753388 873.749903l-13.478901-13.875339 840.44909-815.077042v976.823848h-19.029036v-931.629887z" fill="" p-id="7513"></path><path d="M151.83585 887.228804l-13.082462-13.478901L946.694541 89.991483v931.629887h-19.029036V134.789005z" fill="#F2F2F2" p-id="7514"></path><path d="M164.918312 901.104142l-13.082462-13.875338L927.665505 134.789005v886.832365h-19.029036V179.982966z" fill="" p-id="7515"></path><path d="M178.397213 914.583043l-13.478901-13.478901L908.636469 179.982966v841.638404h-19.029036v-796.840882z" fill="#F2F2F2" p-id="7516"></path><path d="M191.479675 928.458382l-13.082462-13.875339 711.21022-689.802555v796.840882h-19.029036V269.974448z" fill="" p-id="7517"></path><path d="M204.958575 941.937282l-13.4789-13.4789L870.578397 269.974448v751.646922h-19.029036V314.771971z" fill="#F2F2F2" p-id="7518"></path><path d="M218.041038 955.812621l-13.082463-13.875339L851.549361 314.771971v706.849399h-19.029036v-662.051877z" fill="" p-id="7519"></path><path d="M231.1235 969.291521l-13.082462-13.4789 614.479287-596.243128v662.051877h-19.029036V404.763453z" fill="#F2F2F2" p-id="7520"></path><path d="M244.6024 982.770422l-13.4789-13.478901 582.367789-564.528068v616.857917h-19.029036V449.560976z" fill="" p-id="7521"></path><path d="M257.684863 996.645761l-13.082463-13.875339 549.859853-533.209446v572.060394h-19.029036V494.754936z" fill="#F2F2F2" p-id="7522"></path><path d="M284.246225 1024l-13.082462-13.875339 485.240418-470.572203v482.068912h-19.029036V584.349981z" fill="#F2F2F2" p-id="7523"></path><path d="M271.163763 1010.124661l-13.4789-13.4789 517.748354-501.890825v526.866434h-19.029036V539.552458z" fill="" p-id="7524"></path><path d="M162.936121 1.585753v1020.035617" fill="" p-id="7525"></path><path d="M39.247387 1.585753h19.029036v1020.432056H39.247387z" fill="#F2F2F2" p-id="7526"></path><path d="M58.276423 1.585753h19.029036v1020.432056H58.276423z" fill="" p-id="7527"></path><path d="M77.305459 1.585753h19.029036v1020.432056H77.305459z" fill="#F2F2F2" p-id="7528"></path><path d="M96.334495 1.585753h19.029036v1020.432056h-19.029036z" fill="" p-id="7529"></path><path d="M115.363531 1.585753H134.392567v1020.432056h-19.029036z" fill="#F2F2F2" p-id="7530"></path><path d="M134.392567 1.585753h19.029036v1020.432056H134.392567z" fill="" p-id="7531"></path><path d="M153.421603 1.585753h19.029036v1020.432056h-19.029036z" fill="#F2F2F2" p-id="7532"></path><path d="M172.450639 1.585753h19.029036v1020.432056h-19.029036z" fill="" p-id="7533"></path><path d="M191.479675 1.585753h19.029036v1020.432056h-19.029036z" fill="#F2F2F2" p-id="7534"></path><path d="M210.508711 1.585753H229.537747v1020.432056h-19.029036z" fill="" p-id="7535"></path><path d="M229.537747 1.585753h19.029036v1020.432056H229.537747zM267.595819 1.585753h19.029036v1020.432056h-19.029036z" fill="#F2F2F2" p-id="7536"></path><path d="M248.566783 1.585753h19.029036v1020.432056h-19.029036z" fill="" p-id="7537"></path></svg>